<svg id='World_Map_24' width='24' height='24' viewBox='0 0 24 24' xmlns='http://www.w3.org/2000/svg' xmlns:xlink='http://www.w3.org/1999/xlink'><rect width='24' height='24' stroke='none' fill='#000000' opacity='0'/>


<g transform="matrix(0.42 0 0 0.42 12 12)" >
<g style="" >
<g transform="matrix(1 0 0 1 0 -0.5)" >
<radialGradient id="SVGID_0fWAkZb~Z1VOmioLoH8S3f_1" gradientUnits="userSpaceOnUse" gradientTransform="matrix(1 0 0 1 -24 -23.5)" cx="1.655" cy="8.856" r="53.234" fx="1.655" fy="8.856">
<stop offset="0%" style="stop-color:rgb(240,240,221);stop-opacity: 1"/>
<stop offset="100%" style="stop-color:rgb(230,230,202);stop-opacity: 1"/>
</radialGradient>
<polygon style="stroke: none; stroke-width: 1; stroke-dasharray: none; stroke-linecap: butt; stroke-dashoffset: 0; stroke-linejoin: miter; stroke-miterlimit: 4; fill: url(#SVGID_0fWAkZb~Z1VOmioLoH8S3f_1); fill-rule: nonzero; opacity: 1;" points="-23,15.88 -11.46,14.78 0,15.88 11.46,14.78 23,15.88 23,-14.78 11.53,-15.88 0,-14.78 -11.53,-15.88 -23,-14.78 -23,15.88 " />
</g>
<g transform="matrix(1 0 0 1 0 -0.5)" >
<radialGradient id="SVGID_0fWAkZb~Z1VOmioLoH8S3g_2" gradientUnits="userSpaceOnUse" gradientTransform="matrix(1 0 0 1 0 0)" cx="1.469" cy="9.089" r="54.441" fx="1.469" fy="9.089">
<stop offset="0%" style="stop-color:rgb(204,176,136);stop-opacity: 1"/>
<stop offset="100%" style="stop-color:rgb(166,143,110);stop-opacity: 1"/>
</radialGradient>
<path style="stroke: none; stroke-width: 1; stroke-dasharray: none; stroke-linecap: butt; stroke-dashoffset: 0; stroke-linejoin: miter; stroke-miterlimit: 4; fill: url(#SVGID_0fWAkZb~Z1VOmioLoH8S3g_2); fill-rule: nonzero; opacity: 1;" transform=" translate(-24, -23.5)" d="M 35.534 8.171 L 46.45 9.214 L 46.45 38.777 L 35.516 37.739 L 35.464 37.739 L 35.412 37.739 L 24 38.829 L 12.588 37.739 L 12.536 37.739 L 12.484 37.739 L 1.55 38.777 L 1.55 9.214 L 12.466 8.171 L 23.948 9.261 L 24 9.266 L 24.052 9.261 L 35.534 8.171 M 35.534 7.6209999999999996 L 24 8.716 L 12.466 7.621 L 1 8.716 L 1 39.379 L 12.533 38.284 L 24 39.379 L 35.464 38.284 L 47 39.379 L 47 8.716 L 35.534 7.621 Z" stroke-linecap="round" />
</g>
<g transform="matrix(1 0 0 1 0 -0.5)" >
<polygon style="stroke: none; stroke-width: 1; stroke-dasharray: none; stroke-linecap: butt; stroke-dashoffset: 0; stroke-linejoin: miter; stroke-miterlimit: 4; fill: rgb(150,135,149); fill-rule: nonzero; opacity: 1;" points="-8.26,13.44 -11.52,13.13 -12.3,13.21 -21.35,14.07 -21.35,-13.29 -11.58,-14.23 0.05,-13.13 11.48,-14.23 21.36,-13.29 21.36,14.07 11.41,13.13 0,14.23 -8.26,13.44 " />
</g>
<g transform="matrix(1 0 0 1 0 -0.5)" >
<radialGradient id="SVGID_0fWAkZb~Z1VOmioLoH8S3h_3" gradientUnits="userSpaceOnUse" gradientTransform="matrix(1 0 0 1 -24 -23.5)" cx="22.066" cy="22.836" r="16.476" fx="22.066" fy="22.836">
<stop offset="0%" style="stop-color:rgb(146,220,236);stop-opacity: 1"/>
<stop offset="100%" style="stop-color:rgb(59,133,217);stop-opacity: 1"/>
</radialGradient>
<polygon style="stroke: none; stroke-width: 1; stroke-dasharray: none; stroke-linecap: butt; stroke-dashoffset: 0; stroke-linejoin: miter; stroke-miterlimit: 4; fill: url(#SVGID_0fWAkZb~Z1VOmioLoH8S3h_3); fill-rule: nonzero; opacity: 1;" points="20.81,-12.79 20.81,13.47 16.05,13.02 11.47,12.58 1.03,13.58 0,13.68 -0.69,13.61 -4.15,13.28 -8.21,12.9 -11.47,12.58 -12.35,12.67 -13.04,12.74 -18.17,13.22 -20.81,13.47 -20.81,-12.79 -11.53,-13.68 0,-12.58 11.53,-13.68 20.81,-12.79 " />
</g>
<g transform="matrix(1 0 0 1 -13.74 -4.64)" >
<radialGradient id="SVGID_0fWAkZb~Z1VOmioLoH8S3a_4" gradientUnits="userSpaceOnUse" gradientTransform="matrix(1 0 0 1 -10.26 -19.36)" cx="8.412" cy="20.727" r="5.908" fx="8.412" fy="20.727">
<stop offset="0%" style="stop-color:rgb(83,179,68);stop-opacity: 1"/>
<stop offset="56.39999999999999%" style="stop-color:rgb(51,150,68);stop-opacity: 1"/>
<stop offset="100%" style="stop-color:rgb(33,119,50);stop-opacity: 1"/>
</radialGradient>
<polygon style="stroke: none; stroke-width: 1; stroke-dasharray: none; stroke-linecap: butt; stroke-dashoffset: 0; stroke-linejoin: miter; stroke-miterlimit: 4; fill: url(#SVGID_0fWAkZb~Z1VOmioLoH8S3a_4); fill-rule: nonzero; opacity: 1;" points="6.17,-1.26 6.17,-1.06 5.95,-1.06 5.71,-0.82 4.99,-0.82 4.83,-0.66 4.88,-0.61 5.1,-0.61 5.19,-0.69 5.29,-0.6 5.29,-0.45 5.2,-0.36 5.2,-0.21 5.29,-0.11 5.55,-0.11 5.55,-0.02 5.34,0.19 5.09,0.19 5.09,0.04 5.17,-0.03 5.17,-0.13 5.08,-0.13 4.93,0.01 4.65,0.01 4.43,0.24 4.43,0.47 4.14,0.77 3.91,0.77 3.82,0.86 3.82,1.04 3.95,1.18 3.95,1.41 3.8,1.57 3.58,1.57 3.34,1.81 3.34,2.03 3.52,2.21 3.52,2.57 3.44,2.64 3.3,2.64 3.2,2.55 3.2,2.28 2.93,2.02 2.43,2.02 2.33,2.13 2.2,2.13 2.14,2.06 1.89,2.06 1.6,2.36 1.6,3.13 1.81,3.34 2.28,3.34 2.28,3.19 2.45,3.01 2.76,3.01 2.76,3.2 2.65,3.31 2.65,3.67 3.04,3.67 3.24,3.88 3.24,4.12 3.09,4.28 3.24,4.43 3.73,4.43 3.79,4.49 3.79,4.6 3.72,4.67 3.66,4.6 3.53,4.6 3.41,4.72 3.26,4.72 3,4.45 2.81,4.45 2.4,4.03 2.12,4.03 1.89,3.79 1.41,3.79 1.11,3.49 0.81,3.49 0.56,3.23 0.56,3.1 0.66,2.99 0.66,2.84 -0.1,2.08 -0.1,1.92 -0.26,1.76 -0.39,1.76 -0.39,1.86 -0.27,1.98 -0.27,2.08 0.12,2.48 0.12,2.69 0.25,2.83 0.25,2.92 0.12,2.92 -0.08,2.72 -0.08,2.55 -0.31,2.32 -0.31,2.21 -0.7,1.82 -0.7,1.58 -1.45,0.83 -1.45,-0.49 -1.88,-0.93 -1.88,-1.3 -2.65,-2.07 -2.94,-2.35 -3.63,-2.35 -3.9,-2.63 -4.34,-2.63 -4.62,-2.34 -4.62,-2.13 -4.99,-1.76 -5.17,-1.76 -5.27,-1.66 -5.46,-1.66 -5.67,-1.46 -5.88,-1.46 -5.98,-1.54 -5.98,-1.64 -5.76,-1.64 -5.59,-1.82 -5.39,-1.82 -5.19,-2.03 -5.19,-2.17 -5.52,-2.17 -5.67,-2.31 -5.86,-2.31 -6.08,-2.54 -6.08,-2.82 -5.84,-3.07 -5.57,-3.07 -5.49,-3.15 -5.49,-3.24 -6.02,-3.24 -6.17,-3.38 -6.17,-3.54 -6.06,-3.65 -5.75,-3.65 -5.69,-3.59 -5.57,-3.59 -5.52,-3.65 -5.52,-3.73 -5.68,-3.73 -5.73,-3.78 -5.91,-3.95 -5.99,-3.95 -6.05,-4.01 -6.05,-4.09 -5.99,-4.16 -5.73,-4.16 -5.54,-4.35 -5.43,-4.35 -5.29,-4.49 -5.08,-4.49 -4.93,-4.64 -4.82,-4.64 -4.73,-4.55 -4.46,-4.55 -4.33,-4.41 -3.89,-4.41 -3.76,-4.28 -3.13,-4.28 -2.91,-4.05 -2.54,-4.05 -2.27,-4.34 -1.92,-4.34 -1.83,-4.42 -1.71,-4.42 -1.51,-4.23 -1.34,-4.23 -1.24,-4.32 -0.92,-4.32 -0.68,-4.08 -0.43,-4.08 -0.21,-3.87 0.22,-3.87 0.38,-3.7 0.48,-3.7 0.56,-3.78 0.46,-3.88 0.46,-3.95 0.58,-3.95 0.65,-4.02 0.8,-4.02 0.91,-3.91 1.06,-3.91 1.13,-3.83 1.71,-3.83 1.97,-4.11 1.97,-4.21 1.73,-4.45 1.73,-4.64 1.81,-4.72 1.99,-4.72 2.11,-4.6 2.11,-4.48 2.21,-4.38 2.21,-4.22 2.35,-4.06 2.43,-4.06 2.52,-4.15 2.62,-4.15 2.72,-4.05 2.72,-3.96 2.65,-3.9 2.65,-3.83 2.7,-3.78 2.78,-3.78 2.98,-3.97 2.98,-4.09 2.89,-4.18 2.89,-4.29 3.16,-4.29 3.31,-4.15 3.31,-4.03 3.25,-3.97 3.38,-3.84 3.38,-3.74 3.19,-3.55 2.87,-3.55 2.75,-3.43 2.75,-3.33 2.55,-3.13 2.43,-3.13 2.3,-3 2.19,-3 1.86,-2.67 1.86,-2.38 2.03,-2.21 2.03,-2.03 2.17,-1.88 2.52,-1.88 2.74,-1.66 3.16,-1.66 3.27,-1.55 3.27,-1.25 3.5,-1.02 3.58,-1.02 3.7,-1.15 3.7,-1.31 3.53,-1.49 3.53,-1.6 3.67,-1.6 3.85,-1.8 3.85,-2.04 3.69,-2.19 3.69,-2.31 3.8,-2.42 3.8,-2.71 3.71,-2.81 3.71,-2.9 3.79,-2.99 3.93,-2.99 4.05,-2.86 4.28,-2.86 4.5,-2.64 4.63,-2.64 4.82,-2.46 4.82,-2.28 4.94,-2.16 5.05,-2.16 5.17,-2.28 5.17,-2.41 5.27,-2.41 5.65,-2.04 5.65,-1.75 5.83,-1.58 5.97,-1.58 6.07,-1.48 6.07,-1.36 6.17,-1.26 " />
</g>
<g transform="matrix(1 0 0 1 -13.74 -4.64)" >
<linearGradient id="SVGID_0fWAkZb~Z1VOmioLoH8S3b_5" gradientUnits="userSpaceOnUse" gradientTransform="matrix(1 0 0 1 -10.26 -19.36)" x1="9.889" y1="18.961" x2="16.652" y2="13.211">
<stop offset="0%" style="stop-color:rgb(173,233,3);stop-opacity: 0"/>
<stop offset="9.1%" style="stop-color:rgb(173,233,3);stop-opacity: 0.035"/>
<stop offset="23.5%" style="stop-color:rgb(173,233,3);stop-opacity: 0.133"/>
<stop offset="41.199999999999996%" style="stop-color:rgb(173,233,3);stop-opacity: 0.291"/>
<stop offset="61.8%" style="stop-color:rgb(173,233,3);stop-opacity: 0.511"/>
<stop offset="84.39999999999999%" style="stop-color:rgb(173,233,3);stop-opacity: 0.789"/>
<stop offset="100%" style="stop-color:rgb(173,233,3);stop-opacity: 1"/>
</linearGradient>
<polygon style="stroke: none; stroke-width: 1; stroke-dasharray: none; stroke-linecap: butt; stroke-dashoffset: 0; stroke-linejoin: miter; stroke-miterlimit: 4; fill: url(#SVGID_0fWAkZb~Z1VOmioLoH8S3b_5); fill-rule: nonzero; opacity: 1;" points="6.17,-1.26 6.17,-1.06 5.95,-1.06 5.71,-0.82 4.99,-0.82 4.83,-0.66 4.88,-0.61 5.1,-0.61 5.19,-0.69 5.29,-0.6 5.29,-0.45 5.2,-0.36 5.2,-0.21 5.29,-0.11 5.55,-0.11 5.55,-0.02 5.34,0.19 5.09,0.19 5.09,0.04 5.17,-0.03 5.17,-0.13 5.08,-0.13 4.93,0.01 4.65,0.01 4.43,0.24 4.43,0.47 4.14,0.77 3.91,0.77 3.82,0.86 3.82,1.04 3.95,1.18 3.95,1.41 3.8,1.57 3.58,1.57 3.34,1.81 3.34,2.03 3.52,2.21 3.52,2.57 3.44,2.64 3.3,2.64 3.2,2.55 3.2,2.28 2.93,2.02 2.43,2.02 2.33,2.13 2.2,2.13 2.14,2.06 1.89,2.06 1.6,2.36 1.6,3.13 1.81,3.34 2.28,3.34 2.28,3.19 2.45,3.01 2.76,3.01 2.76,3.2 2.65,3.31 2.65,3.67 3.04,3.67 3.24,3.88 3.24,4.12 3.09,4.28 3.24,4.43 3.73,4.43 3.79,4.49 3.79,4.6 3.72,4.67 3.66,4.6 3.53,4.6 3.41,4.72 3.26,4.72 3,4.45 2.81,4.45 2.4,4.03 2.12,4.03 1.89,3.79 1.41,3.79 1.11,3.49 0.81,3.49 0.56,3.23 0.56,3.1 0.66,2.99 0.66,2.84 -0.1,2.08 -0.1,1.92 -0.26,1.76 -0.39,1.76 -0.39,1.86 -0.27,1.98 -0.27,2.08 0.12,2.48 0.12,2.69 0.25,2.83 0.25,2.92 0.12,2.92 -0.08,2.72 -0.08,2.55 -0.31,2.32 -0.31,2.21 -0.7,1.82 -0.7,1.58 -1.45,0.83 -1.45,-0.49 -1.88,-0.93 -1.88,-1.3 -2.65,-2.07 -2.94,-2.35 -3.63,-2.35 -3.9,-2.63 -4.34,-2.63 -4.62,-2.34 -4.62,-2.13 -4.99,-1.76 -5.17,-1.76 -5.27,-1.66 -5.46,-1.66 -5.67,-1.46 -5.88,-1.46 -5.98,-1.54 -5.98,-1.64 -5.76,-1.64 -5.59,-1.82 -5.39,-1.82 -5.19,-2.03 -5.19,-2.17 -5.52,-2.17 -5.67,-2.31 -5.86,-2.31 -6.08,-2.54 -6.08,-2.82 -5.84,-3.07 -5.57,-3.07 -5.49,-3.15 -5.49,-3.24 -6.02,-3.24 -6.17,-3.38 -6.17,-3.54 -6.06,-3.65 -5.75,-3.65 -5.69,-3.59 -5.57,-3.59 -5.52,-3.65 -5.52,-3.73 -5.68,-3.73 -5.73,-3.78 -5.91,-3.95 -5.99,-3.95 -6.05,-4.01 -6.05,-4.09 -5.99,-4.16 -5.73,-4.16 -5.54,-4.35 -5.43,-4.35 -5.29,-4.49 -5.08,-4.49 -4.93,-4.64 -4.82,-4.64 -4.73,-4.55 -4.46,-4.55 -4.33,-4.41 -3.89,-4.41 -3.76,-4.28 -3.13,-4.28 -2.91,-4.05 -2.54,-4.05 -2.27,-4.34 -1.92,-4.34 -1.83,-4.42 -1.71,-4.42 -1.51,-4.23 -1.34,-4.23 -1.24,-4.32 -0.92,-4.32 -0.68,-4.08 -0.43,-4.08 -0.21,-3.87 0.22,-3.87 0.38,-3.7 0.48,-3.7 0.56,-3.78 0.46,-3.88 0.46,-3.95 0.58,-3.95 0.65,-4.02 0.8,-4.02 0.91,-3.91 1.06,-3.91 1.13,-3.83 1.71,-3.83 1.97,-4.11 1.97,-4.21 1.73,-4.45 1.73,-4.64 1.81,-4.72 1.99,-4.72 2.11,-4.6 2.11,-4.48 2.21,-4.38 2.21,-4.22 2.35,-4.06 2.43,-4.06 2.52,-4.15 2.62,-4.15 2.72,-4.05 2.72,-3.96 2.65,-3.9 2.65,-3.83 2.7,-3.78 2.78,-3.78 2.98,-3.97 2.98,-4.09 2.89,-4.18 2.89,-4.29 3.16,-4.29 3.31,-4.15 3.31,-4.03 3.25,-3.97 3.38,-3.84 3.38,-3.74 3.19,-3.55 2.87,-3.55 2.75,-3.43 2.75,-3.33 2.55,-3.13 2.43,-3.13 2.3,-3 2.19,-3 1.86,-2.67 1.86,-2.38 2.03,-2.21 2.03,-2.03 2.17,-1.88 2.52,-1.88 2.74,-1.66 3.16,-1.66 3.27,-1.55 3.27,-1.25 3.5,-1.02 3.58,-1.02 3.7,-1.15 3.7,-1.31 3.53,-1.49 3.53,-1.6 3.67,-1.6 3.85,-1.8 3.85,-2.04 3.69,-2.19 3.69,-2.31 3.8,-2.42 3.8,-2.71 3.71,-2.81 3.71,-2.9 3.79,-2.99 3.93,-2.99 4.05,-2.86 4.28,-2.86 4.5,-2.64 4.63,-2.64 4.82,-2.46 4.82,-2.28 4.94,-2.16 5.05,-2.16 5.17,-2.28 5.17,-2.41 5.27,-2.41 5.65,-2.04 5.65,-1.75 5.83,-1.58 5.97,-1.58 6.07,-1.48 6.07,-1.36 6.17,-1.26 " />
</g>
<g transform="matrix(1 0 0 1 -10.16 -1.59)" >
<radialGradient id="SVGID_0fWAkZb~Z1VOmioLoH8S3i_6" gradientUnits="userSpaceOnUse" gradientTransform="matrix(1 0 0 1 -13.84 -22.41)" cx="7.049" cy="14.611" r="9.431" fx="7.049" fy="14.611">
<stop offset="0%" style="stop-color:rgb(51,150,68);stop-opacity: 1"/>
<stop offset="56.39999999999999%" style="stop-color:rgb(51,150,68);stop-opacity: 1"/>
<stop offset="100%" style="stop-color:rgb(33,119,50);stop-opacity: 1"/>
</radialGradient>
<polygon style="stroke: none; stroke-width: 1; stroke-dasharray: none; stroke-linecap: butt; stroke-dashoffset: 0; stroke-linejoin: miter; stroke-miterlimit: 4; fill: url(#SVGID_0fWAkZb~Z1VOmioLoH8S3i_6); fill-rule: nonzero; opacity: 1;" points="-0.6,-0.04 -0.4,-0.24 -0.12,-0.24 0.03,-0.09 0.2,-0.09 0.31,0.02 0.45,0.02 0.6,0.18 0.54,0.24 0.25,0.24 0.18,0.17 0.18,0.08 -0.01,0.08 -0.16,-0.07 -0.34,-0.07 -0.43,0.03 -0.55,0.03 -0.6,-0.04 " />
</g>
<g transform="matrix(1 0 0 1 -9.93 -1.16)" >
<radialGradient id="SVGID_0fWAkZb~Z1VOmioLoH8S3i_7" gradientUnits="userSpaceOnUse" gradientTransform="matrix(1 0 0 1 -14.07 -22.84)" cx="7.049" cy="14.611" r="9.431" fx="7.049" fy="14.611">
<stop offset="0%" style="stop-color:rgb(51,150,68);stop-opacity: 1"/>
<stop offset="56.39999999999999%" style="stop-color:rgb(51,150,68);stop-opacity: 1"/>
<stop offset="100%" style="stop-color:rgb(33,119,50);stop-opacity: 1"/>
</radialGradient>
<polygon style="stroke: none; stroke-width: 1; stroke-dasharray: none; stroke-linecap: butt; stroke-dashoffset: 0; stroke-linejoin: miter; stroke-miterlimit: 4; fill: url(#SVGID_0fWAkZb~Z1VOmioLoH8S3i_7); fill-rule: nonzero; opacity: 1;" points="-0.12,-0.02 -0.05,0.06 0.06,0.06 0.12,0 0.12,-0.06 -0.08,-0.06 -0.12,-0.02 " />
</g>
<g transform="matrix(1 0 0 1 -9.27 -1.26)" >
<radialGradient id="SVGID_0fWAkZb~Z1VOmioLoH8S3i_8" gradientUnits="userSpaceOnUse" gradientTransform="matrix(1 0 0 1 -14.73 -22.74)" cx="7.049" cy="14.611" r="9.431" fx="7.049" fy="14.611">
<stop offset="0%" style="stop-color:rgb(51,150,68);stop-opacity: 1"/>
<stop offset="56.39999999999999%" style="stop-color:rgb(51,150,68);stop-opacity: 1"/>
<stop offset="100%" style="stop-color:rgb(33,119,50);stop-opacity: 1"/>
</radialGradient>
<polygon style="stroke: none; stroke-width: 1; stroke-dasharray: none; stroke-linecap: butt; stroke-dashoffset: 0; stroke-linejoin: miter; stroke-miterlimit: 4; fill: url(#SVGID_0fWAkZb~Z1VOmioLoH8S3i_8); fill-rule: nonzero; opacity: 1;" points="-0.29,-0.06 -0.16,-0.19 -0.12,-0.19 -0.06,-0.13 0.12,-0.13 0.21,-0.04 0.31,-0.04 0.38,0.03 0.38,0.13 0.08,0.13 0.02,0.19 -0.13,0.19 -0.2,0.12 -0.31,0.12 -0.38,0.05 -0.38,0 -0.31,0 -0.27,0.04 -0.21,0.04 -0.18,0 -0.18,-0.04 -0.26,-0.04 -0.29,-0.06 " />
</g>
<g transform="matrix(1 0 0 1 -6.06 -9.71)" >
<linearGradient id="SVGID_0fWAkZb~Z1VOmioLoH8S3c_9" gradientUnits="userSpaceOnUse" gradientTransform="matrix(1 0 0 1 -17.94 -14.29)" x1="17.832" y1="11.688" x2="18.344" y2="16.604">
<stop offset="0%" style="stop-color:rgb(253,254,254);stop-opacity: 1"/>
<stop offset="100%" style="stop-color:rgb(215,216,218);stop-opacity: 1"/>
</linearGradient>
<polygon style="stroke: none; stroke-width: 1; stroke-dasharray: none; stroke-linecap: butt; stroke-dashoffset: 0; stroke-linejoin: miter; stroke-miterlimit: 4; fill: url(#SVGID_0fWAkZb~Z1VOmioLoH8S3c_9); fill-rule: nonzero; opacity: 1;" points="-2.99,-1 -3.27,-1 -3.41,-1.14 -3.41,-1.28 -3.1,-1.28 -2.92,-1.46 -2.65,-1.46 -2.5,-1.61 -2.75,-1.61 -2.81,-1.67 -2.81,-1.71 -2.64,-1.71 -2.48,-1.87 -2.34,-1.87 -2.25,-1.96 -2.13,-1.96 -2.13,-2.08 -2.05,-2.16 -1.79,-2.16 -1.41,-2.16 -1.23,-2.34 -0.63,-2.34 -0.41,-2.55 0.23,-2.55 0.32,-2.65 1.38,-2.65 1.72,-2.65 1.99,-2.37 2.34,-2.37 2.46,-2.25 2.34,-2.12 2.34,-2.07 2.7,-2.07 2.8,-2.18 3.3,-2.18 3.41,-2.06 3.41,-1.97 3.1,-1.65 2.83,-1.65 2.57,-1.4 2.57,-1.16 2.75,-0.98 2.75,-0.37 2.21,0.17 2.21,0.47 2.32,0.58 2.32,0.76 2.09,1 1.61,1 1.49,1.11 1.21,1.11 0.77,1.55 0.37,1.55 0.26,1.66 0.26,1.92 -0.06,2.24 -0.06,2.65 -0.24,2.65 -0.39,2.49 -0.6,2.49 -1.06,2.04 -1.06,1.72 -1.27,1.51 -1.27,1.25 -0.95,0.93 -0.95,0.82 -1.06,0.72 -1.06,0.53 -1.2,0.38 -1.29,0.47 -1.51,0.47 -1.51,0.35 -1.36,0.2 -1.36,0.09 -1.56,-0.11 -1.56,-0.29 -1.75,-0.48 -1.75,-0.57 -2.08,-0.57 -2.2,-0.7 -2.44,-0.7 -2.59,-0.55 -2.9,-0.55 -3.02,-0.66 -3.15,-0.66 -3.26,-0.77 -3.26,-0.89 -3.08,-0.89 -2.99,-1 " />
</g>
<g transform="matrix(1 0 0 1 -3.49 -7.94)" >
<radialGradient id="SVGID_0fWAkZb~Z1VOmioLoH8S3j_10" gradientUnits="userSpaceOnUse" gradientTransform="matrix(1 0 0 1 -20.51 -16.06)" cx="20.645" cy="12.421" r="5.317" fx="20.645" fy="12.421">
<stop offset="0%" style="stop-color:rgb(83,179,68);stop-opacity: 1"/>
<stop offset="56.39999999999999%" style="stop-color:rgb(51,150,68);stop-opacity: 1"/>
<stop offset="100%" style="stop-color:rgb(33,119,50);stop-opacity: 1"/>
</radialGradient>
<polygon style="stroke: none; stroke-width: 1; stroke-dasharray: none; stroke-linecap: butt; stroke-dashoffset: 0; stroke-linejoin: miter; stroke-miterlimit: 4; fill: url(#SVGID_0fWAkZb~Z1VOmioLoH8S3j_10); fill-rule: nonzero; opacity: 1;" points="-0.23,-0.16 -0.16,-0.16 -0.08,-0.24 0.23,-0.24 0.32,-0.32 0.41,-0.32 0.59,-0.15 0.59,-0.02 0.43,0.13 0.31,0.13 0.11,0.32 -0.14,0.32 -0.28,0.19 -0.39,0.19 -0.39,0.04 -0.53,0.04 -0.59,-0.01 -0.59,-0.06 -0.46,-0.06 -0.41,-0.11 -0.41,-0.13 -0.54,-0.13 -0.57,-0.16 -0.57,-0.2 -0.5,-0.28 -0.41,-0.28 -0.36,-0.32 -0.31,-0.32 -0.23,-0.25 -0.23,-0.16 " />
</g>
<g transform="matrix(1 0 0 1 -7.76 3.92)" >
<radialGradient id="SVGID_0fWAkZb~Z1VOmioLoH8S3k_11" gradientUnits="userSpaceOnUse" gradientTransform="matrix(1 0 0 1 -16.24 -27.92)" cx="12.641" cy="30.688" r="6.865" fx="12.641" fy="30.688">
<stop offset="0%" style="stop-color:rgb(83,179,68);stop-opacity: 1"/>
<stop offset="56.39999999999999%" style="stop-color:rgb(51,150,68);stop-opacity: 1"/>
<stop offset="100%" style="stop-color:rgb(33,119,50);stop-opacity: 1"/>
</radialGradient>
<polygon style="stroke: none; stroke-width: 1; stroke-dasharray: none; stroke-linecap: butt; stroke-dashoffset: 0; stroke-linejoin: miter; stroke-miterlimit: 4; fill: url(#SVGID_0fWAkZb~Z1VOmioLoH8S3k_11); fill-rule: nonzero; opacity: 1;" points="2.6,-2.17 2.6,-1.88 1.99,-1.29 1.99,-0.49 1.73,-0.23 1.36,-0.23 1.02,0.13 1.02,0.51 0.81,0.72 0.81,0.93 0.39,1.34 0.04,1.34 0.04,1.41 0.15,1.53 0.15,1.64 -0.11,1.9 -0.49,1.9 -0.49,2.11 -0.55,2.16 -0.7,2.16 -0.74,2.2 -0.74,2.27 -0.67,2.35 -0.67,2.57 -0.8,2.69 -0.92,2.69 -1.05,2.83 -1.05,2.92 -0.94,3.03 -0.94,3.18 -1.12,3.34 -1.12,3.47 -1.27,3.63 -1.27,3.88 -1.11,4.06 -0.89,4.06 -0.8,4.13 -0.8,4.23 -0.87,4.29 -1.06,4.29 -1.15,4.39 -1.3,4.39 -1.58,4.1 -1.82,4.1 -1.87,4.05 -1.87,3.9 -1.77,3.79 -1.77,3.39 -1.95,3.21 -1.95,2.94 -1.65,2.64 -1.65,2.4 -1.74,2.32 -1.82,2.25 -1.82,2.11 -1.71,2 -1.71,1.94 -1.8,1.84 -1.8,1.61 -1.54,1.36 -1.54,0.4 -1.41,0.26 -1.41,-0.75 -1.77,-1.12 -1.98,-1.12 -2.06,-1.19 -2.06,-1.36 -2.19,-1.5 -2.19,-1.75 -2.43,-1.99 -2.43,-2.07 -2.55,-2.18 -2.55,-2.27 -2.6,-2.3 -2.6,-2.43 -2.42,-2.59 -2.42,-2.7 -2.44,-2.7 -2.46,-2.68 -2.46,-2.64 -2.5,-2.61 -2.53,-2.61 -2.56,-2.64 -2.56,-2.85 -2.32,-3.09 -2.32,-3.19 -2.16,-3.37 -2.16,-3.7 -2.21,-3.75 -2.21,-3.82 -2.04,-3.99 -2.04,-4.12 -1.96,-4.2 -1.81,-4.19 -1.62,-4.39 -1.34,-4.39 -1.15,-4.2 -0.47,-4.2 -0.38,-4.11 -0.38,-3.99 -0.26,-3.86 -0.15,-3.86 0.07,-3.64 0.48,-3.64 0.74,-3.38 0.74,-3.27 0.84,-3.16 0.84,-3.06 0.68,-2.9 0.68,-2.82 0.78,-2.72 0.89,-2.72 1.03,-2.86 1.25,-2.86 1.41,-2.7 1.61,-2.7 1.71,-2.59 2.02,-2.59 2.27,-2.35 2.41,-2.35 2.6,-2.17 " />
</g>
<g transform="matrix(1 0 0 1 -7.76 3.92)" >
<linearGradient id="SVGID_0fWAkZb~Z1VOmioLoH8S3l_12" gradientUnits="userSpaceOnUse" gradientTransform="matrix(1 0 0 1 -16.24 -27.92)" x1="16.615" y1="27.363" x2="12.398" y2="28.691">
<stop offset="0%" style="stop-color:rgb(173,233,3);stop-opacity: 0"/>
<stop offset="9.1%" style="stop-color:rgb(173,233,3);stop-opacity: 0.035"/>
<stop offset="23.5%" style="stop-color:rgb(173,233,3);stop-opacity: 0.133"/>
<stop offset="41.199999999999996%" style="stop-color:rgb(173,233,3);stop-opacity: 0.291"/>
<stop offset="61.8%" style="stop-color:rgb(173,233,3);stop-opacity: 0.511"/>
<stop offset="84.39999999999999%" style="stop-color:rgb(173,233,3);stop-opacity: 0.789"/>
<stop offset="100%" style="stop-color:rgb(173,233,3);stop-opacity: 1"/>
</linearGradient>
<polygon style="stroke: none; stroke-width: 1; stroke-dasharray: none; stroke-linecap: butt; stroke-dashoffset: 0; stroke-linejoin: miter; stroke-miterlimit: 4; fill: url(#SVGID_0fWAkZb~Z1VOmioLoH8S3l_12); fill-rule: nonzero; opacity: 1;" points="2.6,-2.17 2.6,-1.88 1.99,-1.29 1.99,-0.49 1.73,-0.23 1.36,-0.23 1.02,0.13 1.02,0.51 0.81,0.72 0.81,0.93 0.39,1.34 0.04,1.34 0.04,1.41 0.15,1.53 0.15,1.64 -0.11,1.9 -0.49,1.9 -0.49,2.11 -0.55,2.16 -0.7,2.16 -0.74,2.2 -0.74,2.27 -0.67,2.35 -0.67,2.57 -0.8,2.69 -0.92,2.69 -1.05,2.83 -1.05,2.92 -0.94,3.03 -0.94,3.18 -1.12,3.34 -1.12,3.47 -1.27,3.63 -1.27,3.88 -1.11,4.06 -0.89,4.06 -0.8,4.13 -0.8,4.23 -0.87,4.29 -1.06,4.29 -1.15,4.39 -1.3,4.39 -1.58,4.1 -1.82,4.1 -1.87,4.05 -1.87,3.9 -1.77,3.79 -1.77,3.39 -1.95,3.21 -1.95,2.94 -1.65,2.64 -1.65,2.4 -1.74,2.32 -1.82,2.25 -1.82,2.11 -1.71,2 -1.71,1.94 -1.8,1.84 -1.8,1.61 -1.54,1.36 -1.54,0.4 -1.41,0.26 -1.41,-0.75 -1.77,-1.12 -1.98,-1.12 -2.06,-1.19 -2.06,-1.36 -2.19,-1.5 -2.19,-1.75 -2.43,-1.99 -2.43,-2.07 -2.55,-2.18 -2.55,-2.27 -2.6,-2.3 -2.6,-2.43 -2.42,-2.59 -2.42,-2.7 -2.44,-2.7 -2.46,-2.68 -2.46,-2.64 -2.5,-2.61 -2.53,-2.61 -2.56,-2.64 -2.56,-2.85 -2.32,-3.09 -2.32,-3.19 -2.16,-3.37 -2.16,-3.7 -2.21,-3.75 -2.21,-3.82 -2.04,-3.99 -2.04,-4.12 -1.96,-4.2 -1.81,-4.19 -1.62,-4.39 -1.34,-4.39 -1.15,-4.2 -0.47,-4.2 -0.38,-4.11 -0.38,-3.99 -0.26,-3.86 -0.15,-3.86 0.07,-3.64 0.48,-3.64 0.74,-3.38 0.74,-3.27 0.84,-3.16 0.84,-3.06 0.68,-2.9 0.68,-2.82 0.78,-2.72 0.89,-2.72 1.03,-2.86 1.25,-2.86 1.41,-2.7 1.61,-2.7 1.71,-2.59 2.02,-2.59 2.27,-2.35 2.41,-2.35 2.6,-2.17 " />
</g>
<g transform="matrix(1 0 0 1 -10.14 -11.11)" >
<linearGradient id="SVGID_0fWAkZb~Z1VOmioLoH8S3m_13" gradientUnits="userSpaceOnUse" gradientTransform="matrix(1 0 0 1 -13.86 -12.89)" x1="13.797" y1="11.933" x2="14.123" y2="13.89">
<stop offset="0%" style="stop-color:rgb(253,254,254);stop-opacity: 1"/>
<stop offset="100%" style="stop-color:rgb(215,216,218);stop-opacity: 1"/>
</linearGradient>
<polygon style="stroke: none; stroke-width: 1; stroke-dasharray: none; stroke-linecap: butt; stroke-dashoffset: 0; stroke-linejoin: miter; stroke-miterlimit: 4; fill: url(#SVGID_0fWAkZb~Z1VOmioLoH8S3m_13); fill-rule: nonzero; opacity: 1;" points="1.95,-0.87 1.8,-0.72 1.54,-0.72 1.33,-0.52 1.14,-0.52 0.85,-0.23 0.85,-0.15 0.65,-0.15 0.45,0.05 0.45,0.24 0.18,0.52 0.18,0.68 -0.06,0.91 -0.06,1.09 -0.12,1.14 -1.33,1.14 -1.46,1.01 -1.46,0.78 -1.55,0.68 -1.55,0.61 -1.5,0.55 -1.19,0.55 -1,0.36 -1,0.26 -1.48,0.26 -1.95,-0.21 -1.95,-0.33 -1.66,-0.62 -1.46,-0.62 -1.22,-0.38 -1.16,-0.38 -1.1,-0.44 -1.1,-0.5 -1.29,-0.69 -1.41,-0.69 -1.41,-0.75 -1.36,-0.8 -1.03,-0.8 -0.94,-0.88 -0.25,-0.88 0.01,-1.14 1.62,-1.14 1.78,-0.99 1.9,-0.99 1.95,-0.93 1.95,-0.87 " />
</g>
<g transform="matrix(1 0 0 1 -7.59 -5.21)" >
<radialGradient id="SVGID_0fWAkZb~Z1VOmioLoH8S3i_14" gradientUnits="userSpaceOnUse" gradientTransform="matrix(1 0 0 1 -16.41 -18.79)" cx="7.049" cy="14.611" r="9.431" fx="7.049" fy="14.611">
<stop offset="0%" style="stop-color:rgb(51,150,68);stop-opacity: 1"/>
<stop offset="56.39999999999999%" style="stop-color:rgb(51,150,68);stop-opacity: 1"/>
<stop offset="100%" style="stop-color:rgb(33,119,50);stop-opacity: 1"/>
</radialGradient>
<polygon style="stroke: none; stroke-width: 1; stroke-dasharray: none; stroke-linecap: butt; stroke-dashoffset: 0; stroke-linejoin: miter; stroke-miterlimit: 4; fill: url(#SVGID_0fWAkZb~Z1VOmioLoH8S3i_14); fill-rule: nonzero; opacity: 1;" points="0.04,-0.35 -0.06,-0.35 -0.21,-0.21 -0.21,-0.05 -0.37,0.11 -0.37,0.22 0.01,0.22 0.08,0.29 0.24,0.29 0.3,0.35 0.37,0.35 0.37,0.21 0.24,0.08 0.24,0.01 0.28,-0.02 0.28,-0.08 0.07,-0.08 -0.03,-0.17 -0.03,-0.25 0.04,-0.32 0.04,-0.35 " />
</g>
<g transform="matrix(1 0 0 1 -10.6 -7.83)" >
<radialGradient id="SVGID_0fWAkZb~Z1VOmioLoH8S3i_15" gradientUnits="userSpaceOnUse" gradientTransform="matrix(1 0 0 1 -13.4 -16.17)" cx="7.049" cy="14.611" r="9.431" fx="7.049" fy="14.611">
<stop offset="0%" style="stop-color:rgb(51,150,68);stop-opacity: 1"/>
<stop offset="56.39999999999999%" style="stop-color:rgb(51,150,68);stop-opacity: 1"/>
<stop offset="100%" style="stop-color:rgb(33,119,50);stop-opacity: 1"/>
</radialGradient>
<polygon style="stroke: none; stroke-width: 1; stroke-dasharray: none; stroke-linecap: butt; stroke-dashoffset: 0; stroke-linejoin: miter; stroke-miterlimit: 4; fill: url(#SVGID_0fWAkZb~Z1VOmioLoH8S3i_15); fill-rule: nonzero; opacity: 1;" points="0.39,0.04 0.39,0.14 0.31,0.23 0.16,0.23 0.07,0.13 -0.02,0.13 -0.13,0.23 -0.26,0.23 -0.39,0.1 -0.39,0 -0.25,-0.14 -0.25,-0.2 -0.22,-0.23 -0.02,-0.23 0.15,-0.04 0.31,-0.04 0.39,0.04 " />
</g>
<g transform="matrix(1 0 0 1 -9.07 -8.83)" >
<linearGradient id="SVGID_0fWAkZb~Z1VOmioLoH8S3n_16" gradientUnits="userSpaceOnUse" gradientTransform="matrix(1 0 0 1 -14.93 -15.17)" x1="14.741" y1="14.296" x2="15.137" y2="15.973">
<stop offset="0%" style="stop-color:rgb(253,254,254);stop-opacity: 1"/>
<stop offset="100%" style="stop-color:rgb(215,216,218);stop-opacity: 1"/>
</linearGradient>
<polygon style="stroke: none; stroke-width: 1; stroke-dasharray: none; stroke-linecap: butt; stroke-dashoffset: 0; stroke-linejoin: miter; stroke-miterlimit: 4; fill: url(#SVGID_0fWAkZb~Z1VOmioLoH8S3n_16); fill-rule: nonzero; opacity: 1;" points="-0.22,-0.88 0.18,-0.48 0.4,-0.48 0.66,-0.22 0.66,-0.03 0.75,0.07 1.05,0.07 1.19,0.21 1.19,0.32 0.95,0.56 0.83,0.44 0.83,0.35 0.7,0.21 0.58,0.33 0.58,0.44 0.79,0.64 0.79,0.82 0.73,0.88 0.55,0.88 0.19,0.53 0.01,0.53 -0.06,0.6 -0.2,0.6 -0.27,0.53 -0.27,0.43 -0.21,0.37 0.05,0.37 0.05,0.3 0.21,0.15 0.21,0.07 -0.17,-0.3 -0.28,-0.3 -0.32,-0.25 -0.45,-0.25 -0.55,-0.35 -0.86,-0.35 -0.95,-0.27 -1.06,-0.27 -1.19,-0.4 -1.19,-0.63 -1.09,-0.73 -1.09,-0.84 -1.05,-0.88 -0.22,-0.88 " />
</g>
<g transform="matrix(1 0 0 1 13.36 4.08)" >
<radialGradient id="SVGID_0fWAkZb~Z1VOmioLoH8S3o_17" gradientUnits="userSpaceOnUse" gradientTransform="matrix(1 0 0 1 -37.36 -28.08)" cx="35.167" cy="25.778" r="5.596" fx="35.167" fy="25.778">
<stop offset="0%" style="stop-color:rgb(83,179,68);stop-opacity: 1"/>
<stop offset="56.39999999999999%" style="stop-color:rgb(51,150,68);stop-opacity: 1"/>
<stop offset="100%" style="stop-color:rgb(33,119,50);stop-opacity: 1"/>
</radialGradient>
<polygon style="stroke: none; stroke-width: 1; stroke-dasharray: none; stroke-linecap: butt; stroke-dashoffset: 0; stroke-linejoin: miter; stroke-miterlimit: 4; fill: url(#SVGID_0fWAkZb~Z1VOmioLoH8S3o_17); fill-rule: nonzero; opacity: 1;" points="2.22,-0.07 2.22,0.67 2.01,0.88 2.01,1.08 1.83,1.28 1.83,1.5 1.77,1.56 1.66,1.56 1.53,1.69 1.43,1.69 1.38,1.64 1.31,1.64 1.18,1.76 1.08,1.76 1,1.68 0.79,1.68 0.66,1.54 0.66,1.18 0.49,1.02 0.43,1.02 0.34,1.11 0.23,1.11 -0.02,0.84 -0.16,0.71 -0.18,0.7 -0.49,0.7 -0.64,0.84 -0.89,0.84 -1.06,1.03 -1.37,1.03 -1.61,1.27 -1.93,1.27 -2.08,1.12 -2.08,1 -1.98,0.9 -1.98,0.42 -2.22,0.18 -2.22,-0.32 -1.93,-0.61 -1.76,-0.61 -1.65,-0.72 -1.46,-0.72 -1.34,-0.85 -1.34,-1.06 -1.22,-1.18 -1.07,-1.18 -0.79,-1.46 -0.67,-1.46 -0.58,-1.37 -0.45,-1.37 -0.45,-1.49 -0.27,-1.66 -0.19,-1.66 -0.13,-1.71 0.26,-1.71 0.32,-1.65 0.32,-1.53 0.18,-1.39 0.18,-1.29 0.28,-1.18 0.55,-1.18 0.65,-1.08 0.74,-1.08 0.9,-1.23 0.9,-1.72 0.95,-1.76 0.99,-1.76 1.13,-1.62 1.13,-1.49 1.28,-1.34 1.28,-1.19 1.38,-1.1 1.38,-0.81 1.53,-0.81 1.77,-0.57 1.77,-0.38 1.91,-0.38 2.22,-0.07 " />
</g>
<g transform="matrix(1 0 0 1 13.36 4.08)" >
<linearGradient id="SVGID_0fWAkZb~Z1VOmioLoH8S3p_18" gradientUnits="userSpaceOnUse" gradientTransform="matrix(1 0 0 1 -37.36 -28.08)" x1="39.511" y1="28.18" x2="35.958" y2="27.854">
<stop offset="0%" style="stop-color:rgb(173,233,3);stop-opacity: 0"/>
<stop offset="9.1%" style="stop-color:rgb(173,233,3);stop-opacity: 0.035"/>
<stop offset="23.5%" style="stop-color:rgb(173,233,3);stop-opacity: 0.133"/>
<stop offset="41.199999999999996%" style="stop-color:rgb(173,233,3);stop-opacity: 0.291"/>
<stop offset="61.8%" style="stop-color:rgb(173,233,3);stop-opacity: 0.511"/>
<stop offset="84.39999999999999%" style="stop-color:rgb(173,233,3);stop-opacity: 0.789"/>
<stop offset="100%" style="stop-color:rgb(173,233,3);stop-opacity: 1"/>
</linearGradient>
<polygon style="stroke: none; stroke-width: 1; stroke-dasharray: none; stroke-linecap: butt; stroke-dashoffset: 0; stroke-linejoin: miter; stroke-miterlimit: 4; fill: url(#SVGID_0fWAkZb~Z1VOmioLoH8S3p_18); fill-rule: nonzero; opacity: 1;" points="2.22,-0.07 2.22,0.67 2.01,0.88 2.01,1.08 1.83,1.28 1.83,1.5 1.77,1.56 1.66,1.56 1.53,1.69 1.43,1.69 1.38,1.64 1.31,1.64 1.18,1.76 1.08,1.76 1,1.68 0.79,1.68 0.66,1.54 0.66,1.18 0.49,1.02 0.43,1.02 0.34,1.11 0.23,1.11 -0.02,0.84 -0.16,0.71 -0.18,0.7 -0.49,0.7 -0.64,0.84 -0.89,0.84 -1.06,1.03 -1.37,1.03 -1.61,1.27 -1.93,1.27 -2.08,1.12 -2.08,1 -1.98,0.9 -1.98,0.42 -2.22,0.18 -2.22,-0.32 -1.93,-0.61 -1.76,-0.61 -1.65,-0.72 -1.46,-0.72 -1.34,-0.85 -1.34,-1.06 -1.22,-1.18 -1.07,-1.18 -0.79,-1.46 -0.67,-1.46 -0.58,-1.37 -0.45,-1.37 -0.45,-1.49 -0.27,-1.66 -0.19,-1.66 -0.13,-1.71 0.26,-1.71 0.32,-1.65 0.32,-1.53 0.18,-1.39 0.18,-1.29 0.28,-1.18 0.55,-1.18 0.65,-1.08 0.74,-1.08 0.9,-1.23 0.9,-1.72 0.95,-1.76 0.99,-1.76 1.13,-1.62 1.13,-1.49 1.28,-1.34 1.28,-1.19 1.38,-1.1 1.38,-0.81 1.53,-0.81 1.77,-0.57 1.77,-0.38 1.91,-0.38 2.22,-0.07 " />
</g>
<g transform="matrix(1 0 0 1 14.8 6.29)" >
<radialGradient id="SVGID_0fWAkZb~Z1VOmioLoH8S3o_19" gradientUnits="userSpaceOnUse" gradientTransform="matrix(1 0 0 1 -38.8 -30.29)" cx="35.167" cy="25.778" r="5.596" fx="35.167" fy="25.778">
<stop offset="0%" style="stop-color:rgb(83,179,68);stop-opacity: 1"/>
<stop offset="56.39999999999999%" style="stop-color:rgb(51,150,68);stop-opacity: 1"/>
<stop offset="100%" style="stop-color:rgb(33,119,50);stop-opacity: 1"/>
</radialGradient>
<polygon style="stroke: none; stroke-width: 1; stroke-dasharray: none; stroke-linecap: butt; stroke-dashoffset: 0; stroke-linejoin: miter; stroke-miterlimit: 4; fill: url(#SVGID_0fWAkZb~Z1VOmioLoH8S3o_19); fill-rule: nonzero; opacity: 1;" points="-0.21,-0.21 -0.05,-0.21 0,-0.16 0.05,-0.16 0.12,-0.24 0.22,-0.24 0.22,0.03 0.14,0.11 0.14,0.18 0.08,0.24 -0.02,0.24 -0.15,0.11 -0.15,-0.07 -0.22,-0.14 -0.21,-0.21 " />
</g>
<g transform="matrix(1 0 0 1 17.36 6.53)" >
<radialGradient id="SVGID_0fWAkZb~Z1VOmioLoH8S3o_20" gradientUnits="userSpaceOnUse" gradientTransform="matrix(1 0 0 1 -41.36 -30.53)" cx="35.167" cy="25.778" r="5.596" fx="35.167" fy="25.778">
<stop offset="0%" style="stop-color:rgb(83,179,68);stop-opacity: 1"/>
<stop offset="56.39999999999999%" style="stop-color:rgb(51,150,68);stop-opacity: 1"/>
<stop offset="100%" style="stop-color:rgb(33,119,50);stop-opacity: 1"/>
</radialGradient>
<polygon style="stroke: none; stroke-width: 1; stroke-dasharray: none; stroke-linecap: butt; stroke-dashoffset: 0; stroke-linejoin: miter; stroke-miterlimit: 4; fill: url(#SVGID_0fWAkZb~Z1VOmioLoH8S3o_20); fill-rule: nonzero; opacity: 1;" points="0.21,-0.42 0.28,-0.36 0.31,-0.36 0.36,-0.31 0.41,-0.31 0.45,-0.28 0.4,-0.23 0.35,-0.23 0.23,-0.1 0.23,-0.01 0.15,0.07 0.09,0.07 0.09,0.21 -0.12,0.42 -0.22,0.42 -0.29,0.36 -0.41,0.36 -0.45,0.31 -0.45,0.26 -0.34,0.15 -0.34,0.07 -0.24,-0.02 -0.16,-0.02 0.05,-0.22 0.05,-0.31 0.15,-0.41 0.21,-0.42 " />
</g>
<g transform="matrix(1 0 0 1 18.03 5.64)" >
<radialGradient id="SVGID_0fWAkZb~Z1VOmioLoH8S3o_21" gradientUnits="userSpaceOnUse" gradientTransform="matrix(1 0 0 1 -42.03 -29.64)" cx="35.167" cy="25.778" r="5.596" fx="35.167" fy="25.778">
<stop offset="0%" style="stop-color:rgb(83,179,68);stop-opacity: 1"/>
<stop offset="56.39999999999999%" style="stop-color:rgb(51,150,68);stop-opacity: 1"/>
<stop offset="100%" style="stop-color:rgb(33,119,50);stop-opacity: 1"/>
</radialGradient>
<polygon style="stroke: none; stroke-width: 1; stroke-dasharray: none; stroke-linecap: butt; stroke-dashoffset: 0; stroke-linejoin: miter; stroke-miterlimit: 4; fill: url(#SVGID_0fWAkZb~Z1VOmioLoH8S3o_21); fill-rule: nonzero; opacity: 1;" points="-0.21,0.18 -0.11,0.08 -0.11,-0.06 -0.24,-0.19 -0.24,-0.28 -0.35,-0.39 -0.35,-0.45 -0.31,-0.49 -0.23,-0.49 -0.15,-0.41 -0.15,-0.32 -0.01,-0.17 -0.01,-0.1 0.07,-0.02 0.15,-0.02 0.2,-0.07 0.29,-0.07 0.35,-0.02 0.35,0.16 0.28,0.22 0.19,0.22 0.13,0.28 0.13,0.35 -0.01,0.49 -0.08,0.49 -0.12,0.45 -0.12,0.39 -0.07,0.34 -0.07,0.3 -0.11,0.26 -0.18,0.26 -0.21,0.23 -0.21,0.18 " />
</g>
<g transform="matrix(1 0 0 1 0.71 -10.98)" >
<radialGradient id="SVGID_0fWAkZb~Z1VOmioLoH8S3j_22" gradientUnits="userSpaceOnUse" gradientTransform="matrix(1 0 0 1 -24.71 -13.02)" cx="20.645" cy="12.421" r="5.317" fx="20.645" fy="12.421">
<stop offset="0%" style="stop-color:rgb(83,179,68);stop-opacity: 1"/>
<stop offset="56.39999999999999%" style="stop-color:rgb(51,150,68);stop-opacity: 1"/>
<stop offset="100%" style="stop-color:rgb(33,119,50);stop-opacity: 1"/>
</radialGradient>
<polygon style="stroke: none; stroke-width: 1; stroke-dasharray: none; stroke-linecap: butt; stroke-dashoffset: 0; stroke-linejoin: miter; stroke-miterlimit: 4; fill: url(#SVGID_0fWAkZb~Z1VOmioLoH8S3j_22); fill-rule: nonzero; opacity: 1;" points="-0.91,-0.24 -0.91,-0.11 -0.66,0.15 -0.66,0.29 -0.54,0.4 -0.43,0.4 -0.32,0.51 -0.21,0.51 -0.04,0.34 -0.04,0.22 0.06,0.13 0.06,0.07 0.09,0.04 0.14,0.04 0.18,0.08 0.18,0.12 0.22,0.17 0.22,0.28 0.28,0.33 0.4,0.33 0.44,0.37 0.54,0.37 0.67,0.24 0.67,0.19 0.6,0.12 0.47,0.12 0.36,0 0.28,0 0.2,-0.07 0.2,-0.15 0.24,-0.18 0.48,-0.18 0.54,-0.12 0.73,-0.12 0.91,-0.3 0.91,-0.4 0.86,-0.45 0.55,-0.45 0.5,-0.5 0.41,-0.5 0.35,-0.43 0.26,-0.43 0.18,-0.51 0.06,-0.51 -0.06,-0.38 -0.13,-0.32 -0.2,-0.32 -0.25,-0.36 -0.32,-0.36 -0.4,-0.29 -0.49,-0.29 -0.54,-0.34 -0.66,-0.34 -0.7,-0.31 -0.82,-0.31 -0.91,-0.24 " />
</g>
<g transform="matrix(1 0 0 1 8.14 -2.71)" >
<radialGradient id="SVGID_0fWAkZb~Z1VOmioLoH8S3q_23" gradientUnits="userSpaceOnUse" gradientTransform="matrix(1 0 0 1 0 0)" cx="29.802" cy="23.663" r="8.57" fx="29.802" fy="23.663">
<stop offset="0%" style="stop-color:rgb(83,179,68);stop-opacity: 1"/>
<stop offset="38.5%" style="stop-color:rgb(51,150,68);stop-opacity: 1"/>
<stop offset="100%" style="stop-color:rgb(33,119,50);stop-opacity: 1"/>
</radialGradient>
<path style="stroke: none; stroke-width: 1; stroke-dasharray: none; stroke-linecap: butt; stroke-dashoffset: 0; stroke-linejoin: miter; stroke-miterlimit: 4; fill: url(#SVGID_0fWAkZb~Z1VOmioLoH8S3q_23); fill-rule: nonzero; opacity: 1;" transform=" translate(-32.14, -21.29)" d="M 43.373 15.637 L 43.010999999999996 15.637 L 42.693999999999996 15.308 L 42.431 15.308 L 42.102 14.991 L 41.259 14.991 L 41.15 15.1 L 40.3 15.1 L 40.3 14.98 L 40.18 14.859 L 39.48 14.859 L 39.349 14.728 L 39.227999999999994 14.728 L 39.227999999999994 14.651 L 39.11899999999999 14.531 L 38.89999999999999 14.531 L 38.89999999999999 14.6 L 38.83399999999999 14.665 L 38.72399999999999 14.665 L 38.72399999999999 14.545 L 38.61499999999999 14.435 L 38.274999999999984 14.435 L 38.20999999999999 14.49 L 38.20999999999999 14.6 L 38.02399999999999 14.799999999999999 L 37.79399999999999 14.799999999999999 L 37.71699999999999 14.712 L 37.47 14.712 L 37.393 14.635 L 37.306 14.635 L 37.229 14.701 L 37.229 14.876000000000001 L 37.152 14.953000000000001 L 37.01 14.953000000000001 L 36.977 14.920000000000002 L 36.88999999999999 14.833000000000002 L 36.85699999999999 14.800000000000002 L 36.85699999999999 14.64 L 36.92199999999999 14.575000000000001 L 36.92199999999999 14.421000000000001 L 36.71399999999999 14.213000000000001 L 36.352999999999994 14.213000000000001 L 36.21099999999999 14.356000000000002 L 35.81599999999999 14.356000000000002 L 35.69599999999999 14.235000000000001 L 34.87499999999999 14.235000000000001 L 34.87499999999999 14.135000000000002 L 35.19199999999999 13.828000000000001 L 35.19199999999999 13.708000000000002 L 34.983999999999995 13.500000000000002 L 34.684 13.500000000000002 L 34.596999999999994 13.412000000000003 L 34.39699999999999 13.412000000000003 L 34.30899999999999 13.312000000000003 L 33.96999999999999 13.312000000000003 L 33.72899999999999 13.564000000000004 L 33.36699999999999 13.564000000000004 L 33.13699999999999 13.794000000000004 L 32.45799999999999 13.794000000000004 L 32.05299999999999 14.210000000000004 L 31.42899999999999 14.210000000000004 L 31.228999999999992 14.410000000000004 L 30.30899999999999 14.410000000000004 L 29.76099999999999 14.968000000000004 L 29.311999999999987 14.968000000000004 L 29.059999999999988 15.220000000000004 L 28.512999999999987 15.220000000000004 L 28.271999999999988 15.461000000000004 L 27.96499999999999 15.461000000000004 L 27.81199999999999 15.307000000000004 L 27.52699999999999 15.307000000000004 L 27.39599999999999 15.439000000000004 L 27.1 15.439000000000004 L 26.772000000000002 15.110000000000003 L 26.432000000000002 15.110000000000003 L 26 14.673 L 25.387 14.673 L 25.157 14.903 L 24.587 14.903 L 24.16 15.319 L 24.16 15.637 L 23.153 16.645 L 23.153 17.169999999999998 L 23.253 17.27 L 23.5 17.27 L 23.675 17.095 L 23.8 17.095 L 23.8 17.314 L 24 17.514 L 24.427 17.514 L 24.427 17.36 L 24.613 17.174 L 24.613 16.955 L 24.448999999999998 16.802 L 24.448999999999998 16.538999999999998 L 24.590999999999998 16.397 L 24.744999999999997 16.397 L 25.006999999999998 16.133999999999997 L 25.006999999999998 15.933999999999997 L 25.38 15.933999999999997 L 25.38 16.086999999999996 L 25.04 16.426999999999996 L 25.04 16.754999999999995 L 25.215999999999998 16.929999999999996 L 25.215999999999998 17.094999999999995 L 24.915999999999997 17.389999999999997 L 24.915999999999997 17.6 L 24.794999999999998 17.71 L 24.532999999999998 17.71 L 24.258999999999997 17.984 L 23.157 17.984 L 22.478 18.673000000000002 L 21.963 18.673000000000002 L 21.963 18.816000000000003 L 22.138 18.991000000000003 L 22.423000000000002 18.991000000000003 L 22.423000000000002 19.221000000000004 L 22.281000000000002 19.363000000000003 L 21.788000000000004 19.363000000000003 L 21.588000000000005 19.563000000000002 L 21.588000000000005 20.154000000000003 L 21.851000000000006 20.406000000000002 L 22.343000000000007 20.406000000000002 L 22.519000000000005 20.220000000000002 L 22.519000000000005 20 L 22.727000000000004 19.8 L 22.891000000000005 19.8 L 23.055000000000007 19.636 L 23.3 19.636 L 23.486 19.461 L 23.716 19.461 L 24.316000000000003 20.061 L 24.516000000000002 20.061 L 24.822000000000003 20.361 L 25.008000000000003 20.361 L 25.074 20.284 L 25.074 20.084 L 25.184 19.974999999999998 L 25.304000000000002 19.974999999999998 L 25.468000000000004 20.139 L 25.468000000000004 20.4 L 25.655000000000005 20.575 L 25.906000000000006 20.575 L 26.038000000000007 20.444 L 26.323000000000008 20.444 L 26.454000000000008 20.575 L 26.454000000000008 20.958 L 26.24600000000001 21.177 L 25.45800000000001 21.177 L 25.271000000000008 20.991 L 25.008000000000006 20.991 L 24.844000000000005 21.155 L 24.844000000000005 21.309 L 24.713000000000005 21.309 L 24.603000000000005 21.199 L 24.472000000000005 21.199 L 24.286000000000005 21.013 L 24.045000000000005 21.013 L 23.913000000000004 20.871000000000002 L 23.913000000000004 20.5 L 23.813000000000002 20.4 L 23.638 20.4 L 23.55 20.487 L 22.772000000000002 20.487 L 22.444000000000003 20.816 L 21.8 20.816 L 21.548000000000002 21.067999999999998 L 21.548000000000002 21.342 L 20.716 22.174 L 20.716 22.448 L 20.858 22.59 L 20.858 23.061 L 20.694 23.225 L 20.694 23.466 L 21.668 24.441000000000003 L 22.424 24.441000000000003 L 22.631999999999998 24.233000000000004 L 23.025999999999996 24.233000000000004 L 23.225999999999996 24.433000000000003 L 23.477999999999994 24.433000000000003 L 23.598999999999993 24.564000000000004 L 23.598999999999993 25.112000000000002 L 23.93799999999999 25.44 L 23.93799999999999 25.8 L 24.13799999999999 26.008 L 24.13799999999999 26.38 L 23.88699999999999 26.631999999999998 L 23.88699999999999 27.3 L 24.24799999999999 27.661 L 24.24799999999999 28.4 L 24.55499999999999 28.706999999999997 L 24.55499999999999 29.133999999999997 L 24.68599999999999 29.275999999999996 L 24.937999999999988 29.275999999999996 L 25.090999999999987 29.122999999999998 L 25.583999999999985 29.122999999999998 L 26.295999999999985 28.423 L 26.295999999999985 28.2 L 26.558999999999987 27.926 L 26.558999999999987 27.509999999999998 L 26.448999999999987 27.400999999999996 L 26.448999999999987 27.246999999999996 L 26.503999999999987 27.192999999999998 L 26.744999999999987 27.192999999999998 L 27.149999999999988 26.787 L 27.149999999999988 26.1 L 26.90899999999999 25.849 L 26.90899999999999 25.5 L 28.36599999999999 24.044 L 28.36599999999999 23.77 L 28.21199999999999 23.616 L 27.948999999999987 23.616 L 27.762999999999987 23.803 L 27.37999999999999 23.803 L 27.04099999999999 23.452 L 27.04099999999999 23.167 L 26.68999999999999 22.817 L 26.68999999999999 22.248 L 26.58099999999999 22.138 L 26.35099999999999 21.908 L 26.35099999999999 21.689 L 26.41599999999999 21.623 L 26.58099999999999 21.623 L 26.58099999999999 21.823 L 26.623999999999988 21.867 L 26.92399999999999 22.174 L 26.92399999999999 22.546 L 27.460999999999988 23.083 L 27.460999999999988 23.5 L 27.602999999999987 23.5 L 27.72299999999999 23.38 L 28.05199999999999 23.38 L 28.33699999999999 23.095 L 28.675999999999988 23.095 L 29.245999999999988 22.535999999999998 L 29.245999999999988 22.360999999999997 L 29.07 22.2 L 28.87 22.2 L 28.75 22.32 L 28.509 22.32 L 28.209 22.02 L 28.209 21.89 L 27.935 21.616 L 27.935 21.416 L 28.012 21.34 L 28.133 21.34 L 28.593 21.8 L 28.812 21.8 L 28.987000000000002 21.975 L 29.720000000000002 21.975 L 30.235000000000003 22.489 L 30.435000000000002 22.489 L 30.578000000000003 22.632 L 30.578000000000003 23.114 L 30.972 23.497 L 30.972 23.858 L 31.114 23.990000000000002 L 31.246000000000002 23.990000000000002 L 31.563000000000002 23.683000000000003 L 31.563000000000002 23.245000000000005 L 32.231 22.577000000000005 L 32.231 22.377000000000006 L 32.352000000000004 22.257000000000005 L 32.713 22.257000000000005 L 32.779 22.333000000000006 L 32.779 22.476000000000006 L 33 22.69 L 33 23.084 L 33.066 23.15 L 33.142 23.15 L 33.208000000000006 23.084 L 33.438 23.084 L 33.438 24.091 L 33.821000000000005 24.486 L 33.821000000000005 24.759 L 33.98500000000001 24.759 L 34.08500000000001 24.859 L 34.17300000000001 24.859 L 34.21600000000001 24.815 L 34.074000000000005 24.662000000000003 L 34.074000000000005 24.377000000000002 L 33.669000000000004 23.983000000000004 L 33.669000000000004 23.4 L 33.778000000000006 23.4 L 34.096000000000004 23.718 L 34.096000000000004 23.981 L 34.359 23.981 L 34.709 23.619000000000003 L 34.709 23.181000000000004 L 34.403000000000006 22.875000000000004 L 34.403000000000006 22.623000000000005 L 34.60300000000001 22.423000000000005 L 35.46800000000001 22.423000000000005 L 35.73100000000001 22.160000000000004 L 35.73100000000001 21.974000000000004 L 36.147000000000006 21.558000000000003 L 36.147000000000006 21.163000000000004 L 35.93900000000001 20.955000000000005 L 35.93900000000001 20.780000000000005 L 36.18000000000001 20.539000000000005 L 36.18000000000001 20.430000000000003 L 36.12500000000001 20.375000000000004 L 35.84000000000001 20.375000000000004 L 35.74000000000001 20.287000000000003 L 35.74000000000001 20.134000000000004 L 35.82700000000001 20.046000000000003 L 35.9 20.046000000000003 L 36.019999999999996 20.156000000000002 L 36.129999999999995 20.156000000000002 L 36.206999999999994 20.079 L 36.32699999999999 20.079 L 36.32699999999999 20.233 L 36.42699999999999 20.32 L 36.513999999999996 20.32 L 36.568999999999996 20.364 L 36.568999999999996 20.671 L 36.645999999999994 20.747 L 36.846 20.747 L 36.910999999999994 20.682 L 36.910999999999994 20.32 L 36.81099999999999 20.211 L 36.81099999999999 20.122999999999998 L 36.952999999999996 19.980999999999998 L 36.952999999999996 19.826999999999998 L 37.084999999999994 19.695999999999998 L 37.36899999999999 19.695999999999998 L 38.135999999999996 18.918 L 38.135999999999996 18.743 L 38.398999999999994 18.479999999999997 L 38.398999999999994 18.041999999999998 L 38.25599999999999 17.9 L 38.06999999999999 17.9 L 37.93899999999999 18.031 L 37.82899999999999 18.031 L 37.74199999999999 17.944 L 37.74199999999999 17.779 L 38.40999999999999 17.111 L 38.97899999999999 17.111 L 39.08899999999999 17.002 L 39.288999999999994 17.002 L 39.376 17.079 L 39.638999999999996 17.079 L 39.715 17 L 39.715 16.934 L 39.956 16.693 L 40.120000000000005 16.693 L 40.273 16.836000000000002 L 40.361000000000004 16.836000000000002 L 40.471000000000004 16.726000000000003 L 40.525000000000006 16.781000000000002 L 40.525000000000006 16.890000000000004 L 40.208000000000006 17.208000000000006 L 40.054 17.208000000000006 L 40 17.269 L 40 17.378 L 39.715 17.663 L 39.715 18.375 L 39.835 18.484 L 39.989000000000004 18.484 L 40.37200000000001 18.112000000000002 L 40.37200000000001 17.981 L 40.657000000000004 17.696 L 40.657000000000004 17.564 L 40.6 17.5 L 40.6 17.357 L 40.644 17.314 L 40.644 17.062 L 40.731 16.974 L 40.972 16.974 L 41.093 16.854 L 41.246 16.854 L 41.356 16.954 L 41.476 16.954 L 41.816 16.626 L 41.991 16.626 L 42.122 16.494 L 42.254 16.494 L 42.341 16.582 L 42.462 16.582 L 42.462 16.439 L 42.330000000000005 16.308 L 42.330000000000005 16.166 L 42.54900000000001 15.947000000000001 L 42.64900000000001 15.947000000000001 L 42.74900000000001 16.056 L 42.91400000000001 16.056 L 43.10000000000001 16.231 L 43.26400000000001 16.231 L 43.37400000000001 16.122 L 43.37400000000001 16 L 43.52700000000001 16 L 43.58200000000001 15.946 L 43.58200000000001 15.846 Z M 27.143 19.8 L 27.034 19.91 L 26.672 19.91 L 26.508 19.735 L 26.233999999999998 19.735 L 26.048 19.942999999999998 L 25.848 19.942999999999998 L 25.662 19.743 L 25.662 19.610999999999997 L 25.771 19.490999999999996 L 25.771 19.282999999999998 L 26.034000000000002 19.019999999999996 L 26.2 19.019999999999996 L 26.288 19.119999999999997 L 26.463 19.119999999999997 L 26.616 18.965999999999998 L 26.77 18.965999999999998 L 26.835 19.020999999999997 L 26.835 19.13 L 26.693 19.273 L 26.693 19.339 L 26.803 19.448 L 26.934 19.448 L 27.142 19.656 Z M 28.632 19.417 L 28.424000000000003 19.417 L 28.370000000000005 19.362000000000002 L 28.270000000000003 19.362000000000002 L 28.204000000000004 19.428 L 28.204000000000004 19.5 L 28.369000000000003 19.653 L 28.511000000000003 19.653 L 28.611000000000004 19.753 L 28.611000000000004 19.884 L 28.568000000000005 19.928 L 28.468000000000004 19.928 L 28.468000000000004 20 L 28.545000000000005 20.076 L 28.545000000000005 20.295 L 28.632000000000005 20.383000000000003 L 28.632000000000005 20.492000000000004 L 28.567000000000004 20.569000000000006 L 28.267000000000003 20.569000000000006 L 28.146000000000004 20.449000000000005 L 28.026000000000003 20.449000000000005 L 27.938000000000002 20.361000000000004 L 27.938000000000002 20.219000000000005 L 28.081000000000003 20.087000000000003 L 28.081000000000003 19.945000000000004 L 27.895000000000003 19.759000000000004 L 27.873000000000005 19.737000000000005 L 27.873000000000005 19.537000000000006 L 27.796000000000003 19.427000000000007 L 27.796000000000003 19.318000000000005 L 27.938000000000002 19.175000000000004 L 28.015000000000004 19.175000000000004 L 28.179000000000006 19.011000000000003 L 28.431000000000004 19.011000000000003 L 28.552000000000003 19.142000000000003 L 28.552000000000003 19.263 L 28.628000000000004 19.340000000000003 Z" stroke-linecap="round" />
</g>
<g transform="matrix(1 0 0 1 11.19 0.87)" >
<radialGradient id="SVGID_0fWAkZb~Z1VOmioLoH8S3r_24" gradientUnits="userSpaceOnUse" gradientTransform="matrix(1 0 0 1 -35.19 -24.87)" cx="24.419" cy="14.261" r="14.435" fx="24.419" fy="14.261">
<stop offset="0%" style="stop-color:rgb(83,179,68);stop-opacity: 1"/>
<stop offset="56.39999999999999%" style="stop-color:rgb(51,150,68);stop-opacity: 1"/>
<stop offset="100%" style="stop-color:rgb(33,119,50);stop-opacity: 1"/>
</radialGradient>
<polygon style="stroke: none; stroke-width: 1; stroke-dasharray: none; stroke-linecap: butt; stroke-dashoffset: 0; stroke-linejoin: miter; stroke-miterlimit: 4; fill: url(#SVGID_0fWAkZb~Z1VOmioLoH8S3r_24); fill-rule: nonzero; opacity: 1;" points="0.54,-0.1 0.54,0.18 0.41,0.3 0.41,0.53 0.23,0.69 0.12,0.69 0.02,0.59 -0.29,0.59 -0.39,0.48 -0.39,0.38 -0.54,0.24 -0.54,-0.01 -0.36,-0.19 -0.16,-0.19 0.07,-0.44 0.15,-0.44 0.26,-0.55 0.26,-0.66 0.3,-0.69 0.38,-0.69 0.5,-0.57 0.5,-0.47 0.38,-0.35 0.38,-0.24 0.54,-0.1 " />
</g>
<g transform="matrix(1 0 0 1 14.18 1.58)" >
<radialGradient id="SVGID_0fWAkZb~Z1VOmioLoH8S3r_25" gradientUnits="userSpaceOnUse" gradientTransform="matrix(1 0 0 1 -38.18 -25.58)" cx="24.419" cy="14.261" r="14.435" fx="24.419" fy="14.261">
<stop offset="0%" style="stop-color:rgb(83,179,68);stop-opacity: 1"/>
<stop offset="56.39999999999999%" style="stop-color:rgb(51,150,68);stop-opacity: 1"/>
<stop offset="100%" style="stop-color:rgb(33,119,50);stop-opacity: 1"/>
</radialGradient>
<polygon style="stroke: none; stroke-width: 1; stroke-dasharray: none; stroke-linecap: butt; stroke-dashoffset: 0; stroke-linejoin: miter; stroke-miterlimit: 4; fill: url(#SVGID_0fWAkZb~Z1VOmioLoH8S3r_25); fill-rule: nonzero; opacity: 1;" points="-1.09,-0.41 -0.98,-0.3 -0.98,-0.15 -0.86,-0.03 -0.38,-0.03 -0.22,0.13 -0.22,0.22 -0.08,0.36 -0.08,0.42 -0.01,0.5 0.24,0.5 0.31,0.43 0.31,0.32 0.36,0.27 0.46,0.27 0.78,0.58 0.89,0.58 0.99,0.68 1.09,0.68 1.09,0.6 0.97,0.48 0.9,0.48 0.75,0.34 0.75,0.28 0.79,0.24 0.79,0.14 0.46,-0.19 0.19,-0.19 0.09,-0.29 -0.12,-0.29 -0.25,-0.42 -0.35,-0.42 -0.44,-0.34 -0.52,-0.34 -0.63,-0.24 -0.7,-0.24 -0.79,-0.33 -0.79,-0.42 -0.73,-0.48 -0.73,-0.57 -0.84,-0.68 -0.99,-0.68 -1.08,-0.59 -1.09,-0.41 " />
</g>
<g transform="matrix(1 0 0 1 3.8 3.26)" >
<radialGradient id="SVGID_0fWAkZb~Z1VOmioLoH8S3s_26" gradientUnits="userSpaceOnUse" gradientTransform="matrix(1 0 0 1 -27.8 -27.26)" cx="27.8" cy="27.262" r="0.711" fx="27.8" fy="27.262">
<stop offset="0%" style="stop-color:rgb(204,255,0);stop-opacity: 1"/>
<stop offset="56.39999999999999%" style="stop-color:rgb(165,229,32);stop-opacity: 1"/>
<stop offset="100%" style="stop-color:rgb(141,224,25);stop-opacity: 1"/>
</radialGradient>
<polygon style="stroke: none; stroke-width: 1; stroke-dasharray: none; stroke-linecap: butt; stroke-dashoffset: 0; stroke-linejoin: miter; stroke-miterlimit: 4; fill: url(#SVGID_0fWAkZb~Z1VOmioLoH8S3s_26); fill-rule: nonzero; opacity: 1;" points="0.5,-0.76 0.5,-0.38 0.27,-0.15 0.27,0.18 0.02,0.43 0.02,0.72 -0.13,0.87 -0.35,0.87 -0.5,0.72 -0.5,0.32 -0.31,0.13 -0.31,-0.3 -0.13,-0.48 0.1,-0.48 0.22,-0.6 0.22,-0.8 0.29,-0.87 0.39,-0.87 0.5,-0.76 " />
</g>
<g transform="matrix(1 0 0 1 10.15 1.34)" >
<radialGradient id="SVGID_0fWAkZb~Z1VOmioLoH8S3r_27" gradientUnits="userSpaceOnUse" gradientTransform="matrix(1 0 0 1 -34.15 -25.34)" cx="24.419" cy="14.261" r="14.435" fx="24.419" fy="14.261">
<stop offset="0%" style="stop-color:rgb(83,179,68);stop-opacity: 1"/>
<stop offset="56.39999999999999%" style="stop-color:rgb(51,150,68);stop-opacity: 1"/>
<stop offset="100%" style="stop-color:rgb(33,119,50);stop-opacity: 1"/>
</radialGradient>
<polygon style="stroke: none; stroke-width: 1; stroke-dasharray: none; stroke-linecap: butt; stroke-dashoffset: 0; stroke-linejoin: miter; stroke-miterlimit: 4; fill: url(#SVGID_0fWAkZb~Z1VOmioLoH8S3r_27); fill-rule: nonzero; opacity: 1;" points="-0.97,-0.82 -0.97,-0.63 -0.5,-0.16 -0.5,0 -0.23,0.26 -0.02,0.26 0.16,0.45 0.93,0.45 1.23,0.75 1.23,0.97 1.12,1.09 0.94,0.91 0.94,0.8 0.81,0.67 0.03,0.67 -0.08,0.56 -0.35,0.56 -0.48,0.43 -0.48,0.29 -0.57,0.2 -0.7,0.2 -0.7,-0.03 -0.86,-0.18 -0.97,-0.18 -1.1,-0.32 -1.1,-0.53 -1.17,-0.6 -1.17,-0.9 -1.23,-0.97 -1.23,-1.03 -1.17,-1.09 -1.08,-1.09 -1,-1 -1,-0.88 -0.97,-0.82 " />
</g>
<g transform="matrix(1 0 0 1 6.37 11.44)" >
<linearGradient id="SVGID_0fWAkZb~Z1VOmioLoH8S3t_28" gradientUnits="userSpaceOnUse" gradientTransform="matrix(1 0 0 1 -30.37 -35.44)" x1="30.249" y1="34.274" x2="30.412" y2="36.743">
<stop offset="0%" style="stop-color:rgb(253,254,254);stop-opacity: 1"/>
<stop offset="100%" style="stop-color:rgb(215,216,218);stop-opacity: 1"/>
</linearGradient>
<polygon style="stroke: none; stroke-width: 1; stroke-dasharray: none; stroke-linecap: butt; stroke-dashoffset: 0; stroke-linejoin: miter; stroke-miterlimit: 4; fill: url(#SVGID_0fWAkZb~Z1VOmioLoH8S3t_28); fill-rule: nonzero; opacity: 1;" points="10.52,-0.05 10.52,0.36 10.31,0.57 9.93,0.57 9.69,0.81 9.69,1.08 5.1,0.65 -5.34,1.64 -6.37,1.74 -7.06,1.68 -10.52,1.35 -10.52,1.15 -10.34,0.97 -10.34,0.72 -10.08,0.46 -9.65,0.46 -9.27,0.09 -9.27,-0.17 -9.1,-0.35 -8.87,-0.35 -8.69,-0.17 -8.39,-0.17 -8.21,0.01 -7.93,0.01 -7.69,-0.23 -7.2,-0.23 -6.95,-0.48 -6.57,-0.48 -6.43,-0.35 -6.22,-0.35 -6.05,-0.52 -5.32,-0.52 -5.13,-0.33 -4.47,-0.33 -3.98,-0.82 -3.52,-0.82 -3.35,-0.65 -3.18,-0.65 -2.75,-1.06 -2.12,-1.06 -1.73,-1.46 -1.16,-1.46 -0.87,-1.74 -0.54,-1.74 -0.28,-1.48 -0.28,-1.13 -0.15,-1.01 0.34,-1.01 0.44,-0.9 0.44,-0.73 -0.01,-0.28 -0.01,-0.16 0.08,-0.08 0.25,-0.08 0.79,-0.61 1.14,-0.61 1.42,-0.88 1.79,-0.88 2.09,-1.17 3.06,-1.17 3.25,-1.36 4.29,-1.36 4.5,-1.58 4.9,-1.58 5.12,-1.37 5.12,-1.18 5.29,-1.18 5.56,-1.45 5.94,-1.45 6.09,-1.29 6.09,-1.12 7.39,-1.12 7.68,-1.41 8.7,-1.41 9.49,-0.62 9.76,-0.62 10.11,-0.27 10.3,-0.27 10.52,-0.05 " />
</g>
<g transform="matrix(1 0 0 1 -15.61 12.24)" >
<linearGradient id="SVGID_0fWAkZb~Z1VOmioLoH8S3u_29" gradientUnits="userSpaceOnUse" gradientTransform="matrix(1 0 0 1 -8.39 -36.24)" x1="8.395" y1="35.791" x2="8.395" y2="36.787">
<stop offset="0%" style="stop-color:rgb(253,254,254);stop-opacity: 1"/>
<stop offset="100%" style="stop-color:rgb(215,216,218);stop-opacity: 1"/>
</linearGradient>
<polygon style="stroke: none; stroke-width: 1; stroke-dasharray: none; stroke-linecap: butt; stroke-dashoffset: 0; stroke-linejoin: miter; stroke-miterlimit: 4; fill: url(#SVGID_0fWAkZb~Z1VOmioLoH8S3u_29); fill-rule: nonzero; opacity: 1;" points="2.46,-0.11 2.56,-0.01 -2.56,0.48 -2.56,0.25 -2.27,-0.05 -1.82,-0.05 -1.63,-0.24 -1.22,-0.24 -1,-0.45 -0.61,-0.45 -0.43,-0.28 0.21,-0.28 0.34,-0.14 0.59,-0.14 0.74,-0.28 1.11,-0.28 1.29,-0.48 1.86,-0.48 2.04,-0.29 2.28,-0.29 2.46,-0.11 " />
</g>
<g transform="matrix(1 0 0 1 -9.64 10.69)" >
<linearGradient id="SVGID_0fWAkZb~Z1VOmioLoH8S3v_30" gradientUnits="userSpaceOnUse" gradientTransform="matrix(1 0 0 1 -14.36 -34.69)" x1="14.408" y1="32.786" x2="14.286" y2="37.295">
<stop offset="0%" style="stop-color:rgb(253,254,254);stop-opacity: 1"/>
<stop offset="100%" style="stop-color:rgb(215,216,218);stop-opacity: 1"/>
</linearGradient>
<polygon style="stroke: none; stroke-width: 1; stroke-dasharray: none; stroke-linecap: butt; stroke-dashoffset: 0; stroke-linejoin: miter; stroke-miterlimit: 4; fill: url(#SVGID_0fWAkZb~Z1VOmioLoH8S3v_30); fill-rule: nonzero; opacity: 1;" points="2.71,-1.63 2.71,-1.53 2.59,-1.41 2.41,-1.41 2.32,-1.31 2.11,-1.31 1.75,-0.95 1.75,-0.79 1.68,-0.74 1.57,-0.74 1.32,-0.48 1.32,-0.21 1.52,-0.02 1.52,0.2 1.66,0.33 1.66,0.7 1.83,0.88 1.83,1.1 1.69,1.25 1.69,1.45 1.43,1.71 -1.82,1.4 -2.71,1.48 -2.6,1.37 -2.6,1.19 -2.43,1.01 -1.89,1.01 -1.65,0.77 -1.11,0.77 -0.77,1.11 -0.51,1.11 -0.37,0.97 -0.17,0.97 -0.03,1.11 0.62,1.11 0.91,0.82 0.91,0.07 1.07,-0.09 1.07,-0.55 2.05,-1.53 2.26,-1.53 2.44,-1.71 2.63,-1.71 2.71,-1.63 " />
</g>
<g transform="matrix(1 0 0 1 -14.52 -4.61)" >
<radialGradient id="SVGID_0fWAkZb~Z1VOmioLoH8S3d_31" gradientUnits="userSpaceOnUse" gradientTransform="matrix(1 0 0 1 -9.48 -19.39)" cx="7.888" cy="21.217" r="7.969" fx="7.888" fy="21.217">
<stop offset="0%" style="stop-color:rgb(254,227,107);stop-opacity: 1"/>
<stop offset="53.6%" style="stop-color:rgb(238,173,46);stop-opacity: 1"/>
<stop offset="100%" style="stop-color:rgb(218,114,37);stop-opacity: 1"/>
</radialGradient>
<polygon style="stroke: none; stroke-width: 1; stroke-dasharray: none; stroke-linecap: butt; stroke-dashoffset: 0; stroke-linejoin: miter; stroke-miterlimit: 4; fill: url(#SVGID_0fWAkZb~Z1VOmioLoH8S3d_31); fill-rule: nonzero; opacity: 1;" points="3.71,-0.19 3.71,0.33 3.41,0.63 3.09,0.63 2.85,0.88 2.85,1.07 2.94,1.17 2.94,1.33 2.67,1.6 2.38,1.6 2.16,1.83 2.16,2.13 1.98,2.31 1.98,2.9 2.13,3.05 2.13,3.23 2.29,3.39 2.29,3.54 2.51,3.76 2.19,3.76 1.88,3.47 1.58,3.47 1.33,3.2 1.33,3.07 1.43,2.96 1.43,2.81 0.67,2.05 0.67,1.89 0.51,1.74 0.38,1.74 0.38,1.83 0.5,1.96 0.5,2.05 0.89,2.45 0.89,2.67 1.02,2.8 1.02,2.9 0.89,2.9 0.7,2.69 0.7,2.52 0.47,2.29 0.47,2.19 0.07,1.79 0.07,1.55 -0.67,0.81 -0.67,-0.52 -1.11,-0.96 -1.11,-1.33 -1.88,-2.1 -2.16,-2.38 -2.85,-2.38 -3.13,-2.66 -3.56,-2.66 -3.71,-2.8 -3.71,-3.15 -3.34,-3.51 -3.07,-3.51 -2.82,-3.76 -2.38,-3.76 -1.91,-3.29 -1.91,-3.07 -1.38,-3.07 -0.85,-2.53 -0.63,-2.53 -0.48,-2.38 -0.48,-2.24 -0.37,-2.13 0.44,-2.13 0.62,-2.3 0.84,-2.3 1,-2.47 1.58,-2.47 1.97,-2.09 1.97,-1.62 2.4,-1.18 2.4,-0.95 2.77,-0.59 3.31,-0.59 3.71,-0.19 " />
</g>
<g transform="matrix(1 0 0 1 -9.21 4.21)" >
<radialGradient id="SVGID_0fWAkZb~Z1VOmioLoH8S3w_32" gradientUnits="userSpaceOnUse" gradientTransform="matrix(0.07 1 -0.53 0.04 14.75 -19.52)" cx="16.684" cy="26.308" r="8.128" fx="16.684" fy="26.308">
<stop offset="0%" style="stop-color:rgb(254,227,107);stop-opacity: 1"/>
<stop offset="53.6%" style="stop-color:rgb(238,173,46);stop-opacity: 1"/>
<stop offset="100%" style="stop-color:rgb(218,114,37);stop-opacity: 1"/>
</radialGradient>
<polygon style="stroke: none; stroke-width: 1; stroke-dasharray: none; stroke-linecap: butt; stroke-dashoffset: 0; stroke-linejoin: miter; stroke-miterlimit: 4; fill: url(#SVGID_0fWAkZb~Z1VOmioLoH8S3w_32); fill-rule: nonzero; opacity: 1;" points="0.67,-0.32 0.67,0.2 0.82,0.35 0.82,0.79 0.62,0.98 0.62,1.42 0.41,1.64 0.41,2.15 0.55,2.29 0.55,2.4 0.53,2.4 0.39,2.54 0.39,2.63 0.5,2.74 0.5,2.89 0.33,3.05 0.33,3.18 0.18,3.34 0.18,3.59 0.34,3.77 0.56,3.77 0.65,3.84 0.65,3.94 0.58,4 0.38,4 0.3,4.1 0.14,4.1 -0.13,3.81 -0.37,3.81 -0.43,3.76 -0.43,3.61 -0.33,3.5 -0.33,3.1 -0.5,2.92 -0.5,2.65 -0.21,2.36 -0.21,2.11 -0.3,2.03 -0.37,1.96 -0.37,1.82 -0.26,1.71 -0.26,1.65 -0.35,1.55 -0.35,1.32 -0.1,1.07 -0.1,0.11 0.03,-0.03 0.03,-1.04 -0.33,-1.41 -0.54,-1.41 -0.61,-1.48 -0.61,-1.65 -0.74,-1.79 -0.74,-2.04 -0.99,-2.28 -0.99,-2.36 -1.11,-2.47 -1.11,-2.56 -1.15,-2.59 -1.15,-2.72 -0.97,-2.88 -0.97,-2.99 -1,-2.99 -1.02,-2.97 -1.02,-2.93 -1.05,-2.9 -1.08,-2.9 -1.12,-2.93 -1.12,-3.14 -0.88,-3.38 -0.88,-3.48 -0.71,-3.66 -0.71,-3.99 -0.77,-4.04 -0.77,-4.1 -0.53,-4.1 -0.39,-3.96 -0.26,-3.96 -0.1,-3.79 0.01,-3.79 0.13,-3.67 0.13,-3.25 -0.1,-3.03 -0.48,-3.03 -0.67,-2.85 -0.67,-2.56 -0.53,-2.42 0.03,-2.42 0.29,-2.17 0.29,-1.82 0.52,-1.6 0.8,-1.6 0.99,-1.4 0.99,-1.22 1.15,-1.05 1.15,-0.8 0.67,-0.32 " />
</g>
<g transform="matrix(1 0 0 1 0.53 1.31)" >
<linearGradient id="SVGID_0fWAkZb~Z1VOmioLoH8S3x_33" gradientUnits="userSpaceOnUse" gradientTransform="matrix(1 0 0 1 0 0)" x1="24.162" y1="22.299" x2="25.082" y2="25.643">
<stop offset="0%" style="stop-color:rgb(173,233,3);stop-opacity: 0"/>
<stop offset="9.1%" style="stop-color:rgb(173,233,3);stop-opacity: 0.035"/>
<stop offset="23.5%" style="stop-color:rgb(173,233,3);stop-opacity: 0.133"/>
<stop offset="41.199999999999996%" style="stop-color:rgb(173,233,3);stop-opacity: 0.291"/>
<stop offset="61.8%" style="stop-color:rgb(173,233,3);stop-opacity: 0.511"/>
<stop offset="84.39999999999999%" style="stop-color:rgb(173,233,3);stop-opacity: 0.789"/>
<stop offset="100%" style="stop-color:rgb(173,233,3);stop-opacity: 1"/>
</linearGradient>
<path style="stroke: none; stroke-width: 1; stroke-dasharray: none; stroke-linecap: butt; stroke-dashoffset: 0; stroke-linejoin: miter; stroke-miterlimit: 4; fill: url(#SVGID_0fWAkZb~Z1VOmioLoH8S3x_33); fill-rule: nonzero; opacity: 1;" transform=" translate(-24.53, -25.31)" d="M 28.359 24.048 L 28.359 23.773999999999997 L 28.205000000000002 23.619999999999997 L 27.942 23.619999999999997 L 27.756 23.807 L 27.373 23.807 L 27.034000000000002 23.456 L 27.034000000000002 23.171 L 26.683000000000003 22.820999999999998 L 26.683000000000003 22.252 L 26.574 22.142 L 26.3 22.416 L 25.829 22.416 L 25.478 22.054000000000002 L 25.04 22.054000000000002 L 24.712 22.394000000000002 L 23.989 22.394000000000002 L 23.781000000000002 22.175 L 22.905 22.175 L 22.423000000000002 21.693 L 21.9 21.693 L 21.549999999999997 21.343 L 20.717999999999996 22.175 L 20.717999999999996 22.449 L 20.859999999999996 22.591 L 20.859999999999996 23.062 L 20.695999999999994 23.226000000000003 L 20.695999999999994 23.467000000000002 L 21.669999999999995 24.442000000000004 L 22.425999999999995 24.442000000000004 L 22.633999999999993 24.234000000000005 L 23.02799999999999 24.234000000000005 L 23.22799999999999 24.434000000000005 L 23.47999999999999 24.434000000000005 L 23.60099999999999 24.565000000000005 L 23.60099999999999 25.113000000000007 L 23.939999999999987 25.441000000000006 L 23.939999999999987 25.8 L 24.139999999999986 26.008 L 24.139999999999986 26.38 L 23.888999999999985 26.631999999999998 L 23.888999999999985 27.3 L 24.249999999999986 27.661 L 24.249999999999986 28.4 L 24.556999999999984 28.706999999999997 L 24.556999999999984 29.133999999999997 L 24.687999999999985 29.275999999999996 L 24.939999999999984 29.275999999999996 L 25.092999999999982 29.122999999999998 L 25.58599999999998 29.122999999999998 L 26.29799999999998 28.423 L 26.29799999999998 28.2 L 26.560999999999982 27.926 L 26.560999999999982 27.509999999999998 L 26.450999999999983 27.400999999999996 L 26.450999999999983 27.246999999999996 L 26.505999999999982 27.192999999999998 L 26.746999999999982 27.192999999999998 L 27.151999999999983 26.787 L 27.151999999999983 26.1 L 26.910999999999984 25.849 L 26.910999999999984 25.5 Z" stroke-linecap="round" />
</g>
<g transform="matrix(1 0 0 1 -6.92 2.98)" >
<radialGradient id="SVGID_0fWAkZb~Z1VOmioLoH8S3y_34" gradientUnits="userSpaceOnUse" gradientTransform="matrix(1 0 0 1 -17.08 -26.98)" cx="14.54" cy="25.469" r="4.289" fx="14.54" fy="25.469">
<stop offset="0%" style="stop-color:rgb(254,227,107);stop-opacity: 1"/>
<stop offset="53.6%" style="stop-color:rgb(238,173,46);stop-opacity: 1"/>
<stop offset="100%" style="stop-color:rgb(218,114,37);stop-opacity: 1"/>
</radialGradient>
<polygon style="stroke: none; stroke-width: 1; stroke-dasharray: none; stroke-linecap: butt; stroke-dashoffset: 0; stroke-linejoin: miter; stroke-miterlimit: 4; fill: url(#SVGID_0fWAkZb~Z1VOmioLoH8S3y_34); fill-rule: nonzero; opacity: 1;" points="1.75,-1.23 1.75,-0.94 1.14,-0.34 1.14,0.45 0.88,0.72 0.51,0.72 0.17,1.07 0.17,1.45 0.1,1.52 -0.5,1.52 -0.61,1.4 -0.61,1.18 -0.73,1.07 -0.73,0.88 -0.86,0.74 -0.86,0.5 -0.71,0.34 -0.71,0.07 -0.79,-0.02 -1.09,-0.02 -1.19,-0.12 -1.19,-0.33 -1.37,-0.52 -1.68,-0.52 -1.75,-0.59 -1.75,-0.76 -1.66,-0.87 -1.5,-0.87 -1.29,-1.07 -0.98,-1.07 -0.81,-1.24 -0.54,-1.24 -0.29,-1.51 0.24,-1.51 0.41,-1.33 0.63,-1.33 0.82,-1.52 1.09,-1.52 1.2,-1.41 1.56,-1.41 1.75,-1.23 " />
</g>
<g transform="matrix(1 0 0 1 3.8 3.26)" >
<radialGradient id="SVGID_0fWAkZb~Z1VOmioLoH8S3z_35" gradientUnits="userSpaceOnUse" gradientTransform="matrix(1 0 0 1 -27.8 -27.26)" cx="23.598" cy="25.428" r="6.182" fx="23.598" fy="25.428">
<stop offset="0%" style="stop-color:rgb(254,227,107);stop-opacity: 1"/>
<stop offset="50.9%" style="stop-color:rgb(238,173,46);stop-opacity: 1"/>
<stop offset="100%" style="stop-color:rgb(218,114,37);stop-opacity: 1"/>
</radialGradient>
<polygon style="stroke: none; stroke-width: 1; stroke-dasharray: none; stroke-linecap: butt; stroke-dashoffset: 0; stroke-linejoin: miter; stroke-miterlimit: 4; fill: url(#SVGID_0fWAkZb~Z1VOmioLoH8S3z_35); fill-rule: nonzero; opacity: 1;" points="0.39,-0.87 0.5,-0.76 0.5,-0.38 0.27,-0.15 0.27,0.18 0.02,0.43 0.02,0.72 -0.13,0.87 -0.35,0.87 -0.5,0.72 -0.5,0.32 -0.31,0.13 -0.31,-0.3 -0.13,-0.48 0.1,-0.48 0.22,-0.6 0.22,-0.8 0.29,-0.87 0.39,-0.87 " />
</g>
<g transform="matrix(1 0 0 1 1.69 2.06)" >
<radialGradient id="SVGID_0fWAkZb~Z1VOmioLoH8S3A_36" gradientUnits="userSpaceOnUse" gradientTransform="matrix(1 0 0 1 -25.69 -26.06)" cx="23.598" cy="25.428" r="6.182" fx="23.598" fy="25.428">
<stop offset="0%" style="stop-color:rgb(254,227,107);stop-opacity: 1"/>
<stop offset="53.6%" style="stop-color:rgb(238,173,46);stop-opacity: 1"/>
<stop offset="100%" style="stop-color:rgb(218,114,37);stop-opacity: 1"/>
</radialGradient>
<polygon style="stroke: none; stroke-width: 1; stroke-dasharray: none; stroke-linecap: butt; stroke-dashoffset: 0; stroke-linejoin: miter; stroke-miterlimit: 4; fill: url(#SVGID_0fWAkZb~Z1VOmioLoH8S3A_36); fill-rule: nonzero; opacity: 1;" points="2.67,-2.28 2.67,-2.01 1.21,-0.55 1.21,-0.21 1.45,0.04 1.45,0.73 1.05,1.13 0.8,1.13 0.75,1.19 0.75,1.34 0.86,1.45 0.86,1.87 0.6,2.14 0.6,2.36 -0.11,3.06 -0.61,3.06 -0.76,3.21 -1.01,3.21 -1.14,3.07 -1.14,2.64 -1.45,2.34 -1.45,1.6 -1.81,1.24 -1.81,0.57 -1.56,0.32 -1.56,-0.05 -1.76,-0.26 -1.76,-0.62 -2.1,-0.95 -2.1,-1.5 -2.22,-1.63 -2.47,-1.63 -2.67,-1.82 -2.16,-2.33 -1.61,-2.33 -1.44,-2.5 -0.93,-2.5 -0.46,-2.05 0.02,-2.05 0.25,-2.28 0.51,-2.28 1.01,-2.8 1.01,-3.21 1.34,-2.89 1.34,-2.6 1.68,-2.25 2.06,-2.25 2.25,-2.44 2.51,-2.44 2.67,-2.28 " />
</g>
<g transform="matrix(1 0 0 1 6.33 -4.4)" >
<radialGradient id="SVGID_0fWAkZb~Z1VOmioLoH8S3B_37" gradientUnits="userSpaceOnUse" gradientTransform="matrix(0.98 -0.21 0.07 0.31 -0.9 21.61)" cx="27.705" cy="22.824" r="19.137" fx="27.705" fy="22.824">
<stop offset="0%" style="stop-color:rgb(254,227,107);stop-opacity: 1"/>
<stop offset="53.6%" style="stop-color:rgb(238,173,46);stop-opacity: 1"/>
<stop offset="100%" style="stop-color:rgb(218,114,37);stop-opacity: 1"/>
</radialGradient>
<path style="stroke: none; stroke-width: 1; stroke-dasharray: none; stroke-linecap: butt; stroke-dashoffset: 0; stroke-linejoin: miter; stroke-miterlimit: 4; fill: url(#SVGID_0fWAkZb~Z1VOmioLoH8S3B_37); fill-rule: nonzero; opacity: 1;" transform=" translate(-30.33, -19.6)" d="M 38.894 16.754 L 38.367999999999995 16.754 L 38.248 16.634 L 38.248 16.5 L 37.940999999999995 16.194 L 37.340999999999994 16.194 L 37.175999999999995 16.346999999999998 L 37.175999999999995 16.647 L 37.33 16.799999999999997 L 37.33 17.008999999999997 L 37.01 17.008999999999997 L 36.809999999999995 16.808999999999997 L 36.16799999999999 16.808999999999997 L 35.96799999999999 17.008999999999997 L 35.58899999999999 17.008999999999997 L 35.58899999999999 16.874999999999996 L 35.81399999999999 16.650999999999996 L 35.81399999999999 16.314999999999998 L 35.46999999999999 15.970999999999998 L 35.038999999999994 15.970999999999998 L 34.76199999999999 15.693999999999999 L 34.355999999999995 15.693999999999999 L 34.15599999999999 15.893999999999998 L 33.526999999999994 15.893999999999998 L 33.26499999999999 16.156 L 32.614999999999995 16.156 L 32.449999999999996 16.322 L 32.449999999999996 16.595 L 32.76199999999999 16.907 L 32.76199999999999 17.296 L 33.18099999999999 17.715 L 33.00699999999999 17.889 L 32.32799999999999 17.889 L 32.05399999999999 18.163 L 31.648999999999987 18.163 L 31.276999999999987 18.524 L 30.4 18.524 L 29.961 18.973000000000003 L 29.961 19.586000000000002 L 29.633 19.904000000000003 L 29.633 20.298000000000002 L 29.369999999999997 20.572000000000003 L 28.271 20.572000000000003 L 28.150000000000002 20.452 L 28.03 20.452 L 27.942 20.364 L 27.942 20.222 L 28.085 20.09 L 28.085 19.948 L 27.899 19.762 L 27.866 19.751 L 27.566 19.451 L 27.4 19.451 L 27.267999999999997 19.32 L 27.267999999999997 18.8 L 26.950999999999997 18.482 L 26.567999999999998 18.482 L 26.413999999999998 18.647 L 25.73 18.647 L 25.413 18.964 L 25.413 19.304 L 25.237000000000002 19.479 L 24.9 19.479 L 24.32 20.058999999999997 L 24.52 20.058999999999997 L 24.826 20.358999999999998 L 25.012 20.358999999999998 L 25.078 20.281999999999996 L 25.078 20.081999999999997 L 25.188 19.972999999999995 L 25.308 19.972999999999995 L 25.472 20.136999999999997 L 25.472 20.4 L 25.659000000000002 20.575 L 25.910000000000004 20.575 L 26.042000000000005 20.444 L 26.327000000000005 20.444 L 26.458000000000006 20.575 L 26.458000000000006 20.958 L 26.250000000000007 21.177 L 25.462000000000007 21.177 L 25.275000000000006 20.991 L 25.012000000000004 20.991 L 24.848000000000003 21.155 L 24.848000000000003 21.309 L 24.717000000000002 21.309 L 24.607000000000003 21.199 L 24.476000000000003 21.199 L 24.290000000000003 21.013 L 24.049000000000003 21.013 L 23.917 20.871000000000002 L 23.917 20.5 L 23.817 20.4 L 23.642 20.4 L 23.554 20.487 L 22.776 20.487 L 22.448 20.816 L 21.8 20.816 L 21.548000000000002 21.067999999999998 L 21.548000000000002 21.342 L 21.898000000000003 21.692 L 22.424000000000003 21.692 L 22.906000000000002 22.174 L 23.782000000000004 22.174 L 23.990000000000002 22.393 L 24.713 22.393 L 25.041 22.053 L 25.479 22.053 L 25.83 22.415 L 26.3 22.415 L 26.574 22.141 L 26.344 21.910999999999998 L 26.344 21.691999999999997 L 26.409000000000002 21.625999999999998 L 26.574 21.625999999999998 L 26.574 21.825999999999997 L 26.617 21.869999999999997 L 26.917 22.176999999999996 L 26.917 22.548999999999996 L 27.454 23.085999999999995 L 27.454 23.5 L 27.596 23.5 L 27.716 23.38 L 28.045 23.38 L 28.330000000000002 23.095 L 28.669 23.095 L 29.239 22.535999999999998 L 29.239 22.360999999999997 L 29.07 22.2 L 28.87 22.2 L 28.75 22.32 L 28.509 22.32 L 28.209 22.02 L 28.209 21.89 L 27.935 21.616 L 27.935 21.416 L 28.012 21.34 L 28.133 21.34 L 28.593 21.8 L 28.812 21.8 L 28.987000000000002 21.975 L 29.687 21.975 L 29.698 21.953000000000003 L 29.898 21.767000000000003 L 30.248 21.767000000000003 L 30.248 21.427000000000003 L 30.631 21.033000000000005 L 31.672 21.033000000000005 L 32.055 20.650000000000006 L 32.92 20.650000000000006 L 33.249 20.321000000000005 L 34.278000000000006 20.321000000000005 L 34.77100000000001 20.821000000000005 L 35.4 20.821000000000005 L 35.684999999999995 20.536000000000005 L 36.178 20.536000000000005 L 36.178 20.427000000000003 L 36.123 20.372000000000003 L 35.838 20.372000000000003 L 35.738 20.284000000000002 L 35.738 20.131000000000004 L 35.825 20.043000000000003 L 35.9 20.043000000000003 L 36.019999999999996 20.153000000000002 L 36.129999999999995 20.153000000000002 L 36.206999999999994 20.076 L 36.32699999999999 20.076 L 36.32699999999999 20.23 L 36.42699999999999 20.317 L 36.513999999999996 20.317 L 36.568999999999996 20.361 L 36.568999999999996 20.668 L 36.645999999999994 20.744 L 36.846 20.744 L 36.910999999999994 20.679 L 36.910999999999994 20.317 L 36.81099999999999 20.208 L 36.81099999999999 20.119999999999997 L 36.952999999999996 19.977999999999998 L 36.952999999999996 19.823999999999998 L 37.084999999999994 19.692999999999998 L 37.36899999999999 19.692999999999998 L 38.135999999999996 18.915 L 38.135999999999996 18.74 L 38.398999999999994 18.476999999999997 L 38.398999999999994 18.038999999999998 L 38.25599999999999 17.897 L 38.06999999999999 17.897 L 37.93899999999999 18.028 L 37.82899999999999 18.028 L 37.74199999999999 17.941 L 37.74199999999999 17.776 L 38.40999999999999 17.108 L 38.97899999999999 17.108 L 39.08899999999999 16.999 L 39.12199999999999 16.999 L 39.12199999999999 16.965999999999998 Z M 27.143 19.8 L 27.034 19.91 L 26.672 19.91 L 26.508 19.735 L 26.233999999999998 19.735 L 26.048 19.942999999999998 L 25.848 19.942999999999998 L 25.662 19.743 L 25.662 19.610999999999997 L 25.771 19.490999999999996 L 25.771 19.282999999999998 L 26.034000000000002 19.019999999999996 L 26.2 19.019999999999996 L 26.288 19.119999999999997 L 26.463 19.119999999999997 L 26.616 18.965999999999998 L 26.77 18.965999999999998 L 26.835 19.020999999999997 L 26.835 19.13 L 26.693 19.273 L 26.693 19.339 L 26.803 19.448 L 26.934 19.448 L 27.142 19.656 Z" stroke-linecap="round" />
</g>
<g transform="matrix(1 0 0 1 12.68 3.86)" >
<radialGradient id="SVGID_0fWAkZb~Z1VOmioLoH8S3C_38" gradientUnits="userSpaceOnUse" gradientTransform="matrix(1 0 0 1 -36.68 -27.86)" cx="37.998" cy="26.389" r="3.614" fx="37.998" fy="26.389">
<stop offset="0%" style="stop-color:rgb(254,227,107);stop-opacity: 1"/>
<stop offset="53.6%" style="stop-color:rgb(238,173,46);stop-opacity: 1"/>
<stop offset="100%" style="stop-color:rgb(218,114,37);stop-opacity: 1"/>
</radialGradient>
<polygon style="stroke: none; stroke-width: 1; stroke-dasharray: none; stroke-linecap: butt; stroke-dashoffset: 0; stroke-linejoin: miter; stroke-miterlimit: 4; fill: url(#SVGID_0fWAkZb~Z1VOmioLoH8S3C_38); fill-rule: nonzero; opacity: 1;" points="1.54,-0.42 1.54,-0.12 1.33,0.1 1.33,0.31 1.2,0.43 1.2,0.59 1.03,0.77 0.68,0.77 0.51,0.93 0.5,0.92 0.19,0.92 0.04,1.06 -0.21,1.06 -0.38,1.25 -0.69,1.25 -0.93,1.49 -1.25,1.49 -1.4,1.34 -1.4,1.22 -1.3,1.12 -1.3,0.64 -1.54,0.39 -1.54,-0.1 -1.25,-0.39 -1.08,-0.39 -0.97,-0.5 -0.78,-0.5 -0.66,-0.64 -0.66,-0.84 -0.54,-0.96 -0.39,-0.96 -0.11,-1.24 0.01,-1.24 0.1,-1.15 0.23,-1.15 0.23,-1.27 0.41,-1.45 0.49,-1.45 0.55,-1.49 0.94,-1.49 1,-1.43 1,-1.31 0.85,-1.17 0.85,-1.07 0.96,-0.96 1.23,-0.96 1.33,-0.87 1.33,-0.64 1.54,-0.42 " />
</g>
<g transform="matrix(1 0 0 1 15.05 4.12)" >
<radialGradient id="SVGID_0fWAkZb~Z1VOmioLoH8S3C_39" gradientUnits="userSpaceOnUse" gradientTransform="matrix(1 0 0 1 -39.05 -28.12)" cx="37.998" cy="26.389" r="3.614" fx="37.998" fy="26.389">
<stop offset="0%" style="stop-color:rgb(254,227,107);stop-opacity: 1"/>
<stop offset="53.6%" style="stop-color:rgb(238,173,46);stop-opacity: 1"/>
<stop offset="100%" style="stop-color:rgb(218,114,37);stop-opacity: 1"/>
</radialGradient>
<polygon style="stroke: none; stroke-width: 1; stroke-dasharray: none; stroke-linecap: butt; stroke-dashoffset: 0; stroke-linejoin: miter; stroke-miterlimit: 4; fill: url(#SVGID_0fWAkZb~Z1VOmioLoH8S3C_39); fill-rule: nonzero; opacity: 1;" points="0.53,-0.11 0.53,0.62 0.32,0.83 0.32,1.04 0.14,1.24 -0.09,1.01 -0.09,0.59 0.13,0.38 0.13,0.18 -0.16,-0.11 -0.37,-0.11 -0.53,-0.27 -0.53,-0.78 -0.41,-0.9 -0.41,-1.24 -0.31,-1.14 -0.31,-0.85 -0.16,-0.85 0.08,-0.61 0.08,-0.43 0.21,-0.43 0.53,-0.11 " />
</g>
<g transform="matrix(1 0 0 1 8.59 -7.06)" >
<linearGradient id="SVGID_0fWAkZb~Z1VOmioLoH8S3D_40" gradientUnits="userSpaceOnUse" gradientTransform="matrix(1 0 0 1 0 0)" x1="32.244" y1="14.6" x2="33.003" y2="22.153">
<stop offset="0%" style="stop-color:rgb(173,233,3);stop-opacity: 0"/>
<stop offset="9.1%" style="stop-color:rgb(173,233,3);stop-opacity: 0.035"/>
<stop offset="23.5%" style="stop-color:rgb(173,233,3);stop-opacity: 0.133"/>
<stop offset="41.199999999999996%" style="stop-color:rgb(173,233,3);stop-opacity: 0.291"/>
<stop offset="61.8%" style="stop-color:rgb(173,233,3);stop-opacity: 0.511"/>
<stop offset="84.39999999999999%" style="stop-color:rgb(173,233,3);stop-opacity: 0.789"/>
<stop offset="100%" style="stop-color:rgb(173,233,3);stop-opacity: 1"/>
</linearGradient>
<path style="stroke: none; stroke-width: 1; stroke-dasharray: none; stroke-linecap: butt; stroke-dashoffset: 0; stroke-linejoin: miter; stroke-miterlimit: 4; fill: url(#SVGID_0fWAkZb~Z1VOmioLoH8S3D_40); fill-rule: nonzero; opacity: 1;" transform=" translate(-32.59, -16.94)" d="M 43.373 15.637 L 43.010999999999996 15.637 L 42.693999999999996 15.308 L 42.431 15.308 L 42.102 14.991 L 41.259 14.991 L 41.15 15.1 L 40.3 15.1 L 40.3 14.98 L 40.18 14.859 L 39.48 14.859 L 39.349 14.728 L 39.227999999999994 14.728 L 39.227999999999994 14.651 L 39.11899999999999 14.531 L 38.89999999999999 14.531 L 38.89999999999999 14.6 L 38.83399999999999 14.665 L 38.72399999999999 14.665 L 38.72399999999999 14.545 L 38.61499999999999 14.435 L 38.274999999999984 14.435 L 38.20999999999999 14.49 L 38.20999999999999 14.6 L 38.02399999999999 14.799999999999999 L 37.79399999999999 14.799999999999999 L 37.71699999999999 14.712 L 37.47 14.712 L 37.393 14.635 L 37.306 14.635 L 37.229 14.701 L 37.229 14.876000000000001 L 37.152 14.953000000000001 L 37.01 14.953000000000001 L 36.977 14.920000000000002 L 36.88999999999999 14.833000000000002 L 36.85699999999999 14.800000000000002 L 36.85699999999999 14.64 L 36.92199999999999 14.575000000000001 L 36.92199999999999 14.421000000000001 L 36.71399999999999 14.213000000000001 L 36.352999999999994 14.213000000000001 L 36.21099999999999 14.356000000000002 L 35.81599999999999 14.356000000000002 L 35.69599999999999 14.235000000000001 L 34.87499999999999 14.235000000000001 L 34.87499999999999 14.135000000000002 L 35.19199999999999 13.828000000000001 L 35.19199999999999 13.708000000000002 L 34.983999999999995 13.500000000000002 L 34.684 13.500000000000002 L 34.596999999999994 13.412000000000003 L 34.39699999999999 13.412000000000003 L 34.30899999999999 13.312000000000003 L 33.96999999999999 13.312000000000003 L 33.72899999999999 13.564000000000004 L 33.36699999999999 13.564000000000004 L 33.13699999999999 13.794000000000004 L 32.45799999999999 13.794000000000004 L 32.05299999999999 14.210000000000004 L 31.42899999999999 14.210000000000004 L 31.228999999999992 14.410000000000004 L 30.30899999999999 14.410000000000004 L 29.76099999999999 14.968000000000004 L 29.311999999999987 14.968000000000004 L 29.059999999999988 15.220000000000004 L 28.512999999999987 15.220000000000004 L 28.271999999999988 15.461000000000004 L 27.96499999999999 15.461000000000004 L 27.81199999999999 15.307000000000004 L 27.52699999999999 15.307000000000004 L 27.39599999999999 15.439000000000004 L 27.1 15.439000000000004 L 26.772000000000002 15.110000000000003 L 26.432000000000002 15.110000000000003 L 26 14.673 L 25.387 14.673 L 25.157 14.903 L 24.587 14.903 L 24.16 15.319 L 24.16 15.637 L 23.153 16.645 L 23.153 17.169999999999998 L 23.253 17.27 L 23.5 17.27 L 23.675 17.095 L 23.8 17.095 L 23.8 17.314 L 24 17.514 L 24.427 17.514 L 24.427 17.36 L 24.613 17.174 L 24.613 16.955 L 24.448999999999998 16.802 L 24.448999999999998 16.538999999999998 L 24.590999999999998 16.397 L 24.744999999999997 16.397 L 25.006999999999998 16.133999999999997 L 25.006999999999998 15.933999999999997 L 25.38 15.933999999999997 L 25.38 16.086999999999996 L 25.04 16.426999999999996 L 25.04 16.754999999999995 L 25.215999999999998 16.929999999999996 L 25.215999999999998 17.094999999999995 L 24.915999999999997 17.389999999999997 L 24.915999999999997 17.6 L 24.794999999999998 17.71 L 24.532999999999998 17.71 L 24.258999999999997 17.984 L 23.157 17.984 L 22.478 18.673000000000002 L 21.963 18.673000000000002 L 21.963 18.816000000000003 L 22.138 18.991000000000003 L 22.423000000000002 18.991000000000003 L 22.423000000000002 19.221000000000004 L 22.281000000000002 19.363000000000003 L 21.788000000000004 19.363000000000003 L 21.588000000000005 19.563000000000002 L 21.588000000000005 20.154000000000003 L 21.851000000000006 20.406000000000002 L 22.343000000000007 20.406000000000002 L 22.519000000000005 20.220000000000002 L 22.519000000000005 20 L 22.727000000000004 19.8 L 22.891000000000005 19.8 L 23.055000000000007 19.636 L 23.3 19.636 L 23.486 19.461 L 23.716 19.461 L 24.316000000000003 20.061 L 24.896 19.481 L 25.235 19.481 L 25.410999999999998 19.306 L 25.410999999999998 18.966 L 25.727999999999998 18.649 L 26.406999999999996 18.649 L 26.560999999999996 18.484 L 26.943999999999996 18.484 L 27.260999999999996 18.802000000000003 L 27.260999999999996 19.317000000000004 L 27.392999999999997 19.448000000000004 L 27.567999999999998 19.448000000000004 L 27.868 19.748000000000005 L 27.901 19.759000000000004 L 27.879 19.737000000000005 L 27.879 19.537000000000006 L 27.802 19.427000000000007 L 27.802 19.318000000000005 L 27.944 19.175000000000004 L 28.021 19.175000000000004 L 28.185000000000002 19.011000000000003 L 28.437 19.011000000000003 L 28.558 19.142000000000003 L 28.558 19.263 L 28.634 19.340000000000003 L 28.634 19.416000000000004 L 28.426000000000002 19.416000000000004 L 28.372000000000003 19.361000000000004 L 28.272000000000002 19.361000000000004 L 28.206000000000003 19.427000000000003 L 28.206000000000003 19.5 L 28.371000000000002 19.653 L 28.513 19.653 L 28.613000000000003 19.753 L 28.613000000000003 19.884 L 28.570000000000004 19.928 L 28.470000000000002 19.928 L 28.470000000000002 20 L 28.547000000000004 20.076 L 28.547000000000004 20.295 L 28.634000000000004 20.383000000000003 L 28.634000000000004 20.492000000000004 L 28.569000000000003 20.569000000000006 L 29.369000000000003 20.569000000000006 L 29.632000000000005 20.295000000000005 L 29.632000000000005 19.9 L 29.960000000000004 19.581999999999997 L 29.960000000000004 18.968999999999998 L 30.399000000000004 18.519999999999996 L 31.286000000000005 18.519999999999996 L 31.658000000000005 18.158999999999995 L 32.063 18.158999999999995 L 32.337 17.884999999999994 L 33.016000000000005 17.884999999999994 L 33.191 17.709999999999994 L 32.775000000000006 17.293999999999993 L 32.775000000000006 16.9 L 32.45700000000001 16.593999999999998 L 32.45700000000001 16.319999999999997 L 32.62200000000001 16.155999999999995 L 33.27900000000001 16.155999999999995 L 33.54200000000001 15.892999999999995 L 34.16600000000001 15.892999999999995 L 34.366000000000014 15.692999999999996 L 34.771000000000015 15.692999999999996 L 35.045000000000016 15.966999999999995 L 35.48300000000002 15.966999999999995 L 35.82200000000002 16.316999999999997 L 35.82200000000002 16.645999999999997 L 35.603000000000016 16.875999999999998 L 35.603000000000016 17.006999999999998 L 35.97600000000001 17.006999999999998 L 36.176000000000016 16.807 L 36.82200000000002 16.807 L 37.02200000000002 17.006999999999998 L 37.34000000000002 17.006999999999998 L 37.34000000000002 16.8 L 37.186000000000014 16.647000000000002 L 37.186000000000014 16.347 L 37.35100000000001 16.194000000000003 L 37.951000000000015 16.194000000000003 L 38.25800000000002 16.500000000000004 L 38.25800000000002 16.632000000000005 L 38.378000000000014 16.752000000000006 L 38.90400000000002 16.752000000000006 L 39.134000000000015 16.971000000000007 L 39.134000000000015 17.00400000000001 L 39.298000000000016 17.00400000000001 L 39.38500000000002 17.08100000000001 L 39.64800000000002 17.08100000000001 L 39.715 17 L 39.715 16.934 L 39.956 16.693 L 40.120000000000005 16.693 L 40.273 16.836000000000002 L 40.361000000000004 16.836000000000002 L 40.471000000000004 16.726000000000003 L 40.525000000000006 16.781000000000002 L 40.525000000000006 16.890000000000004 L 40.208000000000006 17.208000000000006 L 40.054 17.208000000000006 L 40 17.269 L 40 17.378 L 39.715 17.663 L 39.715 18.375 L 39.835 18.484 L 39.989000000000004 18.484 L 40.37200000000001 18.112000000000002 L 40.37200000000001 17.981 L 40.657000000000004 17.696 L 40.657000000000004 17.564 L 40.6 17.5 L 40.6 17.357 L 40.644 17.314 L 40.644 17.062 L 40.731 16.974 L 40.972 16.974 L 41.093 16.854 L 41.246 16.854 L 41.356 16.954 L 41.476 16.954 L 41.816 16.626 L 41.991 16.626 L 42.122 16.494 L 42.254 16.494 L 42.341 16.582 L 42.462 16.582 L 42.462 16.439 L 42.330000000000005 16.308 L 42.330000000000005 16.166 L 42.54900000000001 15.947000000000001 L 42.64900000000001 15.947000000000001 L 42.74900000000001 16.056 L 42.91400000000001 16.056 L 43.10000000000001 16.231 L 43.26400000000001 16.231 L 43.37400000000001 16.122 L 43.37400000000001 16 L 43.52700000000001 16 L 43.58200000000001 15.946 L 43.58200000000001 15.846 Z" stroke-linecap="round" />
</g>
<g transform="matrix(1 0 0 1 11.03 -9.83)" >
<linearGradient id="SVGID_0fWAkZb~Z1VOmioLoH8S3E_41" gradientUnits="userSpaceOnUse" gradientTransform="matrix(1 0 0 1 -35.03 -14.17)" x1="33.144" y1="14.17" x2="36.922" y2="14.17">
<stop offset="0%" style="stop-color:rgb(253,254,254);stop-opacity: 1"/>
<stop offset="100%" style="stop-color:rgb(215,216,218);stop-opacity: 1"/>
</linearGradient>
<polygon style="stroke: none; stroke-width: 1; stroke-dasharray: none; stroke-linecap: butt; stroke-dashoffset: 0; stroke-linejoin: miter; stroke-miterlimit: 4; fill: url(#SVGID_0fWAkZb~Z1VOmioLoH8S3E_41); fill-rule: nonzero; opacity: 1;" points="1.68,0.04 1.89,0.25 1.89,0.41 1.82,0.47 1.82,0.62 1.86,0.66 1.33,0.66 1.13,0.85 0.73,0.85 0.49,0.62 -0.12,0.62 -0.41,0.33 -0.41,-0.01 -0.64,-0.24 -0.93,-0.24 -1.16,-0.02 -1.54,-0.02 -1.89,-0.37 -1.66,-0.6 -1.3,-0.6 -1.06,-0.85 -0.72,-0.85 -0.63,-0.76 -0.43,-0.76 -0.34,-0.67 -0.05,-0.67 0.16,-0.46 0.16,-0.34 -0.16,-0.03 -0.16,0.07 0.66,0.07 0.78,0.19 1.18,0.19 1.32,0.04 1.68,0.04 " />
</g>
<g transform="matrix(1 0 0 1 16.28 -8.67)" >
<linearGradient id="SVGID_0fWAkZb~Z1VOmioLoH8S3F_42" gradientUnits="userSpaceOnUse" gradientTransform="matrix(1 0 0 1 -40.28 -15.33)" x1="36.977" y1="15.33" x2="43.581" y2="15.33">
<stop offset="0%" style="stop-color:rgb(253,254,254);stop-opacity: 1"/>
<stop offset="100%" style="stop-color:rgb(215,216,218);stop-opacity: 1"/>
</linearGradient>
<polygon style="stroke: none; stroke-width: 1; stroke-dasharray: none; stroke-linecap: butt; stroke-dashoffset: 0; stroke-linejoin: miter; stroke-miterlimit: 4; fill: url(#SVGID_0fWAkZb~Z1VOmioLoH8S3F_42); fill-rule: nonzero; opacity: 1;" points="3.3,0.51 3.3,0.61 3.25,0.67 3.09,0.67 3.09,0.79 2.98,0.9 2.82,0.9 2.63,0.72 2.47,0.72 2.37,0.61 2.37,0.46 2.19,0.46 1.92,0.2 1.46,0.2 1.22,0.43 -0.04,0.43 -0.39,0.08 -0.8,0.08 -1.23,-0.35 -1.69,-0.35 -2.04,0.01 -2.33,0.01 -2.47,-0.14 -2.8,-0.14 -2.93,-0.01 -3.13,-0.01 -3.3,-0.19 -3.3,-0.42 -3.27,-0.38 -3.13,-0.38 -3.05,-0.46 -3.05,-0.64 -2.97,-0.7 -2.89,-0.7 -2.81,-0.62 -2.57,-0.62 -2.49,-0.54 -2.26,-0.54 -2.07,-0.73 -2.07,-0.84 -2.01,-0.9 -1.67,-0.9 -1.56,-0.79 -1.56,-0.67 -1.45,-0.67 -1.38,-0.73 -1.38,-0.8 -1.17,-0.8 -1.06,-0.68 -1.06,-0.6 -0.94,-0.6 -0.8,-0.47 -0.1,-0.47 0.02,-0.35 0.02,-0.23 0.87,-0.23 0.98,-0.34 1.82,-0.34 2.15,-0.02 2.42,-0.02 2.73,0.31 3.09,0.31 3.3,0.51 " />
</g>
<g transform="matrix(1 0 0 1 8.93 -1.41)" >
<linearGradient id="SVGID_0fWAkZb~Z1VOmioLoH8S3G_43" gradientUnits="userSpaceOnUse" gradientTransform="matrix(1 0 0 1 0 0)" x1="33.001" y1="22.2" x2="32.791" y2="19.147">
<stop offset="0%" style="stop-color:rgb(173,233,3);stop-opacity: 0"/>
<stop offset="9.1%" style="stop-color:rgb(173,233,3);stop-opacity: 0.035"/>
<stop offset="23.5%" style="stop-color:rgb(173,233,3);stop-opacity: 0.133"/>
<stop offset="41.199999999999996%" style="stop-color:rgb(173,233,3);stop-opacity: 0.291"/>
<stop offset="61.8%" style="stop-color:rgb(173,233,3);stop-opacity: 0.511"/>
<stop offset="84.39999999999999%" style="stop-color:rgb(173,233,3);stop-opacity: 0.789"/>
<stop offset="100%" style="stop-color:rgb(173,233,3);stop-opacity: 1"/>
</linearGradient>
<path style="stroke: none; stroke-width: 1; stroke-dasharray: none; stroke-linecap: butt; stroke-dashoffset: 0; stroke-linejoin: miter; stroke-miterlimit: 4; fill: url(#SVGID_0fWAkZb~Z1VOmioLoH8S3G_43); fill-rule: nonzero; opacity: 1;" transform=" translate(-32.93, -22.59)" d="M 35.937 20.784 L 36.178 20.543 L 35.684999999999995 20.543 L 35.4 20.828 L 34.775999999999996 20.828 L 34.282999999999994 20.328 L 33.254 20.328 L 32.925 20.657 L 32.06 20.657 L 31.677000000000003 21.04 L 30.636 21.04 L 30.253 21.433999999999997 L 30.253 21.773999999999997 L 29.9 21.773999999999997 L 29.7 21.959999999999997 L 29.689 21.981999999999996 L 29.721 21.981999999999996 L 30.236 22.495999999999995 L 30.436 22.495999999999995 L 30.579 22.638999999999996 L 30.579 23.120999999999995 L 30.973 23.503999999999994 L 30.973 23.864999999999995 L 31.115 23.996999999999996 L 31.247 23.996999999999996 L 31.564 23.689999999999998 L 31.564 23.252 L 32.232 22.584 L 32.232 22.384 L 32.353 22.264 L 32.714 22.264 L 32.78 22.34 L 32.78 22.483 L 33 22.69 L 33 23.084 L 33.066 23.15 L 33.142 23.15 L 33.208000000000006 23.084 L 33.438 23.084 L 33.438 24.091 L 33.821000000000005 24.486 L 33.821000000000005 24.759 L 33.98500000000001 24.759 L 34.08500000000001 24.859 L 34.17300000000001 24.859 L 34.21600000000001 24.815 L 34.074000000000005 24.662000000000003 L 34.074000000000005 24.377000000000002 L 33.669000000000004 23.983000000000004 L 33.669000000000004 23.4 L 33.778000000000006 23.4 L 34.096000000000004 23.718 L 34.096000000000004 23.981 L 34.359 23.981 L 34.709 23.619000000000003 L 34.709 23.181000000000004 L 34.403000000000006 22.875000000000004 L 34.403000000000006 22.623000000000005 L 34.60300000000001 22.423000000000005 L 35.46800000000001 22.423000000000005 L 35.73100000000001 22.160000000000004 L 35.73100000000001 21.974000000000004 L 36.147000000000006 21.558000000000003 L 36.147000000000006 21.163000000000004 L 35.93900000000001 20.955000000000005 Z" stroke-linecap="round" />
</g>
<g transform="matrix(1 0 0 1 5.77 7.16)" >
<linearGradient id="SVGID_0fWAkZb~Z1VOmioLoH8S3H_44" gradientUnits="userSpaceOnUse" gradientTransform="matrix(1 0 0 1 -29.77 -31.16)" x1="29.63" y1="22.527" x2="29.745" y2="29.851">
<stop offset="20.1%" style="stop-color:rgb(18,54,92);stop-opacity: 1"/>
<stop offset="100%" style="stop-color:rgb(18,53,89);stop-opacity: 0"/>
</linearGradient>
<polygon style="stroke: none; stroke-width: 1; stroke-dasharray: none; stroke-linecap: butt; stroke-dashoffset: 0; stroke-linejoin: miter; stroke-miterlimit: 4; fill: url(#SVGID_0fWAkZb~Z1VOmioLoH8S3H_44); fill-rule: nonzero; opacity: 0.65;" points="5.77,-8.22 5.77,7.14 5.7,7.13 -5.77,8.22 -5.77,-7.13 5.77,-8.22 " />
</g>
<g transform="matrix(1 0 0 1 -17.26 7.16)" >
<linearGradient id="SVGID_0fWAkZb~Z1VOmioLoH8S3I_45" gradientUnits="userSpaceOnUse" gradientTransform="matrix(1 0 0 1 -6.74 -31.16)" x1="6.227" y1="21.896" x2="6.673" y2="30.024">
<stop offset="14.499999999999998%" style="stop-color:rgb(18,54,92);stop-opacity: 1"/>
<stop offset="74.9%" style="stop-color:rgb(18,53,89);stop-opacity: 0"/>
</linearGradient>
<polygon style="stroke: none; stroke-width: 1; stroke-dasharray: none; stroke-linecap: butt; stroke-dashoffset: 0; stroke-linejoin: miter; stroke-miterlimit: 4; fill: url(#SVGID_0fWAkZb~Z1VOmioLoH8S3I_45); fill-rule: nonzero; opacity: 0.3;" points="5.73,-8.22 5.73,7.14 -5.73,8.22 -5.73,-7.13 5.73,-8.22 " />
</g>
<g transform="matrix(1 0 0 1 -5.77 -8.18)" >
<linearGradient id="SVGID_0fWAkZb~Z1VOmioLoH8S3e_46" gradientUnits="userSpaceOnUse" gradientTransform="matrix(1 0 0 1 -18.23 -15.82)" x1="18.234" y1="23.021" x2="18.234" y2="4.553">
<stop offset="0%" style="stop-color:rgb(18,54,92);stop-opacity: 1"/>
<stop offset="19.7%" style="stop-color:rgb(18,54,92);stop-opacity: 0.87"/>
<stop offset="55.400000000000006%" style="stop-color:rgb(18,54,91);stop-opacity: 0.524"/>
<stop offset="100%" style="stop-color:rgb(18,53,89);stop-opacity: 0"/>
</linearGradient>
<polygon style="stroke: none; stroke-width: 1; stroke-dasharray: none; stroke-linecap: butt; stroke-dashoffset: 0; stroke-linejoin: miter; stroke-miterlimit: 4; fill: url(#SVGID_0fWAkZb~Z1VOmioLoH8S3e_46); fill-rule: nonzero; opacity: 0.75;" points="5.77,-7.11 5.77,8.2 -5.77,7.11 -5.77,-8.2 5.77,-7.11 " />
</g>
<g transform="matrix(1 0 0 1 -5.77 7.16)" >
<linearGradient id="SVGID_0fWAkZb~Z1VOmioLoH8S3J_47" gradientUnits="userSpaceOnUse" gradientTransform="matrix(1 0 0 1 -18.23 -31.16)" x1="18.234" y1="23.234" x2="18.234" y2="44.937">
<stop offset="0%" style="stop-color:rgb(18,54,92);stop-opacity: 1"/>
<stop offset="19.7%" style="stop-color:rgb(18,54,92);stop-opacity: 0.87"/>
<stop offset="55.400000000000006%" style="stop-color:rgb(18,54,91);stop-opacity: 0.524"/>
<stop offset="100%" style="stop-color:rgb(18,53,89);stop-opacity: 0"/>
</linearGradient>
<polygon style="stroke: none; stroke-width: 1; stroke-dasharray: none; stroke-linecap: butt; stroke-dashoffset: 0; stroke-linejoin: miter; stroke-miterlimit: 4; fill: url(#SVGID_0fWAkZb~Z1VOmioLoH8S3J_47); fill-rule: nonzero; opacity: 0.75;" points="5.77,-7.13 5.77,8.22 -5.7,7.13 -5.77,7.14 -5.77,-8.22 5.77,-7.13 " />
</g>
<g transform="matrix(1 0 0 1 -5.77 7.16)" >
<linearGradient id="SVGID_0fWAkZb~Z1VOmioLoH8S3K_48" gradientUnits="userSpaceOnUse" gradientTransform="matrix(1 0 0 1 -18.23 -31.16)" x1="18.291" y1="22.052" x2="18.249" y2="28.818">
<stop offset="0%" style="stop-color:rgb(18,54,92);stop-opacity: 1"/>
<stop offset="74.9%" style="stop-color:rgb(18,53,89);stop-opacity: 0"/>
</linearGradient>
<polygon style="stroke: none; stroke-width: 1; stroke-dasharray: none; stroke-linecap: butt; stroke-dashoffset: 0; stroke-linejoin: miter; stroke-miterlimit: 4; fill: url(#SVGID_0fWAkZb~Z1VOmioLoH8S3K_48); fill-rule: nonzero; opacity: 0.4;" points="5.77,-7.13 5.77,8.22 -5.7,7.13 -5.77,7.14 -5.77,-8.22 5.77,-7.13 " />
</g>
<g transform="matrix(1 0 0 1 17.26 -8.18)" >
<linearGradient id="SVGID_0fWAkZb~Z1VOmioLoH8S3L_49" gradientUnits="userSpaceOnUse" gradientTransform="matrix(1 0 0 1 -41.26 -15.82)" x1="41.265" y1="23.395" x2="41.265" y2="2.451">
<stop offset="0%" style="stop-color:rgb(18,54,92);stop-opacity: 1"/>
<stop offset="19.7%" style="stop-color:rgb(18,54,92);stop-opacity: 0.87"/>
<stop offset="55.400000000000006%" style="stop-color:rgb(18,54,91);stop-opacity: 0.524"/>
<stop offset="100%" style="stop-color:rgb(18,53,89);stop-opacity: 0"/>
</linearGradient>
<polygon style="stroke: none; stroke-width: 1; stroke-dasharray: none; stroke-linecap: butt; stroke-dashoffset: 0; stroke-linejoin: miter; stroke-miterlimit: 4; fill: url(#SVGID_0fWAkZb~Z1VOmioLoH8S3L_49); fill-rule: nonzero; opacity: 0.7;" points="5.73,-7.11 5.73,8.2 -5.73,7.11 -5.73,-8.2 5.73,-7.11 " />
</g>
<g transform="matrix(1 0 0 1 17.26 7.16)" >
<linearGradient id="SVGID_0fWAkZb~Z1VOmioLoH8S3M_50" gradientUnits="userSpaceOnUse" gradientTransform="matrix(1 0 0 1 -41.26 -31.16)" x1="41.265" y1="23.043" x2="41.265" y2="45.559">
<stop offset="0%" style="stop-color:rgb(18,54,92);stop-opacity: 1"/>
<stop offset="19.7%" style="stop-color:rgb(18,54,92);stop-opacity: 0.87"/>
<stop offset="55.400000000000006%" style="stop-color:rgb(18,54,91);stop-opacity: 0.524"/>
<stop offset="100%" style="stop-color:rgb(18,53,89);stop-opacity: 0"/>
</linearGradient>
<polygon style="stroke: none; stroke-width: 1; stroke-dasharray: none; stroke-linecap: butt; stroke-dashoffset: 0; stroke-linejoin: miter; stroke-miterlimit: 4; fill: url(#SVGID_0fWAkZb~Z1VOmioLoH8S3M_50); fill-rule: nonzero; opacity: 0.7;" points="5.73,-7.13 5.73,8.22 -5.73,7.14 -5.73,-8.22 5.73,-7.13 " />
</g>
<g transform="matrix(1 0 0 1 17.26 7.16)" >
<linearGradient id="SVGID_0fWAkZb~Z1VOmioLoH8S3N_51" gradientUnits="userSpaceOnUse" gradientTransform="matrix(1 0 0 1 -41.26 -31.16)" x1="41.32" y1="22.509" x2="41.288" y2="27.456">
<stop offset="0%" style="stop-color:rgb(18,54,92);stop-opacity: 1"/>
<stop offset="100%" style="stop-color:rgb(18,53,89);stop-opacity: 0"/>
</linearGradient>
<polygon style="stroke: none; stroke-width: 1; stroke-dasharray: none; stroke-linecap: butt; stroke-dashoffset: 0; stroke-linejoin: miter; stroke-miterlimit: 4; fill: url(#SVGID_0fWAkZb~Z1VOmioLoH8S3N_51); fill-rule: nonzero; opacity: 0.4;" points="5.73,-7.13 5.73,8.22 -5.73,7.14 -5.73,-8.22 5.73,-7.13 " />
</g>
</g>
</g>
</svg>
